<mxfile host="app.diagrams.net" agent="Mozilla/5.0 (Windows NT 10.0; Win64; x64) AppleWebKit/537.36 (KHTML, like Gecko) Chrome/139.0.0.0 Safari/537.36" version="28.1.0" pages="2">
  <diagram name="Page-1" id="GJas5A8zbiKn9Wo5F9Zt">
    <mxGraphModel dx="1698" dy="454" grid="1" gridSize="10" guides="0" tooltips="1" connect="1" arrows="1" fold="1" page="1" pageScale="1" pageWidth="850" pageHeight="1100" background="light-dark(#FFFFFF,#FFFFFF)" math="1" shadow="0">
      <root>
        <mxCell id="0" />
        <mxCell id="1" style="" parent="0" />
        <mxCell id="O5Yj0BY--caXqHYr7iZM-55" value="" style="rounded=0;whiteSpace=wrap;html=1;align=left;verticalAlign=top;fontFamily=Helvetica;fontSize=11;fontColor=light-dark(#000000,#000000);labelBackgroundColor=none;fillColor=none;gradientColor=none;strokeColor=light-dark(#000000,#000000);strokeWidth=2;" vertex="1" parent="1">
          <mxGeometry x="320" y="2000" width="360" height="351" as="geometry" />
        </mxCell>
        <mxCell id="O5Yj0BY--caXqHYr7iZM-83" value="" style="ellipse;whiteSpace=wrap;html=1;aspect=fixed;rounded=0;strokeColor=none;strokeWidth=1;align=left;verticalAlign=top;fontFamily=Helvetica;fontSize=11;fontColor=light-dark(#000000,#000000);labelBackgroundColor=none;fillColor=light-dark(#FF8000,#FF8000);gradientColor=none;opacity=70;" vertex="1" parent="1">
          <mxGeometry x="440" y="2070" width="80" height="80" as="geometry" />
        </mxCell>
        <mxCell id="SPA56wAMmxe-K7njHeTv-1" value="" style="rounded=0;whiteSpace=wrap;html=1;fillColor=light-dark(#FFFFFF,#FFFFFF);strokeColor=light-dark(#000000,#000000);strokeWidth=3;movable=1;resizable=1;rotatable=1;deletable=1;editable=1;locked=0;connectable=1;" parent="1" vertex="1">
          <mxGeometry x="40" y="430" width="760" height="610" as="geometry" />
        </mxCell>
        <mxCell id="TbScQdoDC3WaG0IKX4vc-7" value="" style="shape=image;verticalLabelPosition=bottom;labelBackgroundColor=default;verticalAlign=top;aspect=fixed;imageAspect=0;image=https://www.freecads.com/media/thumb/fit/501x353/5bb5f68903497.jpg;rotation=-90;" parent="1" vertex="1">
          <mxGeometry x="17.110000000000014" y="826.25" width="212.89" height="150" as="geometry" />
        </mxCell>
        <mxCell id="SPA56wAMmxe-K7njHeTv-2" value="" style="ellipse;whiteSpace=wrap;html=1;aspect=fixed;fillColor=light-dark(#FFFFFF,transparent);strokeColor=light-dark(#000000,#FF0000);strokeWidth=3;" parent="1" vertex="1">
          <mxGeometry x="70" y="780" width="230" height="230" as="geometry" />
        </mxCell>
        <mxCell id="SPA56wAMmxe-K7njHeTv-3" value="" style="ellipse;whiteSpace=wrap;html=1;aspect=fixed;fillColor=light-dark(#000000,#0000FF);" parent="1" vertex="1">
          <mxGeometry x="167.5" y="877.5" width="35" height="35" as="geometry" />
        </mxCell>
        <mxCell id="SPA56wAMmxe-K7njHeTv-4" value="" style="endArrow=classic;html=1;rounded=0;strokeColor=light-dark(#000000,#0000FF);strokeWidth=3;" parent="1" source="SPA56wAMmxe-K7njHeTv-3" edge="1">
          <mxGeometry width="50" height="50" relative="1" as="geometry">
            <mxPoint x="190" y="877.5" as="sourcePoint" />
            <mxPoint x="250" y="870" as="targetPoint" />
          </mxGeometry>
        </mxCell>
        <mxCell id="SPA56wAMmxe-K7njHeTv-5" value="" style="rounded=0;whiteSpace=wrap;html=1;movable=0;resizable=0;rotatable=0;deletable=0;editable=0;locked=1;connectable=0;" parent="1" vertex="1">
          <mxGeometry x="40" y="750" width="350" height="30" as="geometry" />
        </mxCell>
        <mxCell id="SPA56wAMmxe-K7njHeTv-6" value="" style="rounded=0;whiteSpace=wrap;html=1;movable=0;resizable=0;rotatable=0;deletable=0;editable=0;locked=1;connectable=0;" parent="1" vertex="1">
          <mxGeometry x="310" y="600" width="490" height="30" as="geometry" />
        </mxCell>
        <mxCell id="SPA56wAMmxe-K7njHeTv-10" value="" style="ellipse;whiteSpace=wrap;html=1;aspect=fixed;fillColor=#008a00;fontColor=#ffffff;strokeColor=#005700;movable=1;resizable=1;rotatable=1;deletable=1;editable=1;locked=0;connectable=1;" parent="1" vertex="1">
          <mxGeometry x="600" y="470" width="20" height="20" as="geometry" />
        </mxCell>
        <mxCell id="SPA56wAMmxe-K7njHeTv-18" value="" style="group;rotation=45;" parent="1" vertex="1" connectable="0">
          <mxGeometry x="190" y="920" width="110" height="110" as="geometry" />
        </mxCell>
        <mxCell id="SPA56wAMmxe-K7njHeTv-19" value="" style="ellipse;whiteSpace=wrap;html=1;aspect=fixed;opacity=30;rotation=45;" parent="SPA56wAMmxe-K7njHeTv-18" vertex="1">
          <mxGeometry x="25.060000000000002" y="25.06" width="60.13" height="60.13" as="geometry" />
        </mxCell>
        <mxCell id="TbScQdoDC3WaG0IKX4vc-1" value="" style="triangle;whiteSpace=wrap;html=1;rotation=-135;" parent="SPA56wAMmxe-K7njHeTv-18" vertex="1">
          <mxGeometry x="45.119999999999976" y="40" width="20" height="30" as="geometry" />
        </mxCell>
        <mxCell id="SPA56wAMmxe-K7njHeTv-22" value="" style="group;rotation=-34;" parent="1" vertex="1" connectable="0">
          <mxGeometry x="150.00174593052023" y="767.5017459305202" width="640.54" height="230" as="geometry" />
        </mxCell>
        <mxCell id="SPA56wAMmxe-K7njHeTv-28" value="" style="group" parent="SPA56wAMmxe-K7njHeTv-22" vertex="1" connectable="0">
          <mxGeometry x="8.704639028383376" y="26.531532410069318" width="88.6907219432332" height="120.97" as="geometry" />
        </mxCell>
        <mxCell id="SPA56wAMmxe-K7njHeTv-23" value="" style="ellipse;whiteSpace=wrap;html=1;aspect=fixed;opacity=30;rotation=-34;" parent="SPA56wAMmxe-K7njHeTv-28" vertex="1">
          <mxGeometry x="25.035360971616626" y="19.638467589930684" width="38.62" height="38.62" as="geometry" />
        </mxCell>
        <mxCell id="SPA56wAMmxe-K7njHeTv-31" value="" style="triangle;whiteSpace=wrap;html=1;rotation=-45;opacity=30;strokeColor=light-dark(#000000,#FF00FF);fillColor=light-dark(#FFFFFF,#FF33FF);" parent="SPA56wAMmxe-K7njHeTv-28" vertex="1">
          <mxGeometry x="-73.97" y="53.94" width="128.31" height="79.42" as="geometry" />
        </mxCell>
        <mxCell id="TbScQdoDC3WaG0IKX4vc-3" value="" style="triangle;whiteSpace=wrap;html=1;rotation=135;" parent="SPA56wAMmxe-K7njHeTv-28" vertex="1">
          <mxGeometry x="34.34128457076008" y="23.944391189074167" width="20" height="30" as="geometry" />
        </mxCell>
        <mxCell id="SPA56wAMmxe-K7njHeTv-32" value="" style="triangle;whiteSpace=wrap;html=1;rotation=45;opacity=30;strokeColor=light-dark(#000000,#FF00FF);fillColor=light-dark(#FFFFFF,#FF33FF);" parent="SPA56wAMmxe-K7njHeTv-22" vertex="1">
          <mxGeometry x="-21.28" y="123.74" width="134.29" height="67.5" as="geometry" />
        </mxCell>
        <mxCell id="SPA56wAMmxe-K7njHeTv-30" value="Sensor Uncertainty (larger for distant obstacles)" style="rounded=0;whiteSpace=wrap;html=1;fillColor=light-dark(#E3C800,#FFFF00);fontColor=light-dark(#000000,#000000);strokeColor=#B09500;" parent="SPA56wAMmxe-K7njHeTv-22" vertex="1">
          <mxGeometry x="160" y="115.5" width="70" height="90" as="geometry" />
        </mxCell>
        <mxCell id="SPA56wAMmxe-K7njHeTv-35" value="Local Goal" style="rounded=0;whiteSpace=wrap;html=1;fillColor=light-dark(#E3C800,#FFFF00);fontColor=light-dark(#000000,#000000);strokeColor=#B09500;" parent="SPA56wAMmxe-K7njHeTv-22" vertex="1">
          <mxGeometry x="159.99825406947977" y="22.4982540694798" width="70" height="50.5" as="geometry" />
        </mxCell>
        <mxCell id="SPA56wAMmxe-K7njHeTv-34" value="" style="ellipse;whiteSpace=wrap;html=1;aspect=fixed;fillColor=light-dark(#000000,#00FFFF);" parent="SPA56wAMmxe-K7njHeTv-22" vertex="1">
          <mxGeometry x="100.62825406947977" y="72.9982540694798" width="35" height="35" as="geometry" />
        </mxCell>
        <mxCell id="SPA56wAMmxe-K7njHeTv-41" value="" style="ellipse;whiteSpace=wrap;html=1;aspect=fixed;fillColor=#1ba1e2;fontColor=#ffffff;strokeColor=#006EAF;" parent="SPA56wAMmxe-K7njHeTv-22" vertex="1">
          <mxGeometry x="114.38" y="86.75" width="7.5" height="7.5" as="geometry" />
        </mxCell>
        <mxCell id="SPA56wAMmxe-K7njHeTv-36" value="" style="endArrow=classic;html=1;rounded=0;strokeColor=light-dark(#000000,#000000);exitX=0;exitY=0.5;exitDx=0;exitDy=0;" parent="SPA56wAMmxe-K7njHeTv-22" source="SPA56wAMmxe-K7njHeTv-35" target="SPA56wAMmxe-K7njHeTv-34" edge="1">
          <mxGeometry width="50" height="50" relative="1" as="geometry">
            <mxPoint x="183.99825406947977" y="172.4982540694798" as="sourcePoint" />
            <mxPoint x="139.99825406947977" y="193.4982540694798" as="targetPoint" />
          </mxGeometry>
        </mxCell>
        <mxCell id="TbScQdoDC3WaG0IKX4vc-8" value="" style="shape=image;verticalLabelPosition=bottom;labelBackgroundColor=default;verticalAlign=top;aspect=fixed;imageAspect=0;image=https://i.pinimg.com/564x/9a/37/a9/9a37a99fa108eaf53b29d5175b4bc8d4.jpg;" parent="SPA56wAMmxe-K7njHeTv-22" vertex="1">
          <mxGeometry x="290" y="-131.48999999999998" width="350.54" height="246.99" as="geometry" />
        </mxCell>
        <mxCell id="SPA56wAMmxe-K7njHeTv-29" value="" style="endArrow=classic;html=1;rounded=0;strokeColor=light-dark(#000000,#000000);exitX=0;exitY=0.5;exitDx=0;exitDy=0;entryX=0.5;entryY=0;entryDx=0;entryDy=0;" parent="1" source="SPA56wAMmxe-K7njHeTv-30" target="SPA56wAMmxe-K7njHeTv-19" edge="1">
          <mxGeometry width="50" height="50" relative="1" as="geometry">
            <mxPoint x="395.06999999999994" y="912.5" as="sourcePoint" />
            <mxPoint x="280" y="970" as="targetPoint" />
          </mxGeometry>
        </mxCell>
        <mxCell id="SPA56wAMmxe-K7njHeTv-37" value="" style="endArrow=classic;html=1;rounded=0;strokeColor=light-dark(#000000,#000000);exitX=0.5;exitY=1;exitDx=0;exitDy=0;entryX=0.339;entryY=0.271;entryDx=0;entryDy=0;entryPerimeter=0;" parent="1" source="SPA56wAMmxe-K7njHeTv-38" target="SPA56wAMmxe-K7njHeTv-31" edge="1">
          <mxGeometry width="50" height="50" relative="1" as="geometry">
            <mxPoint x="360" y="820" as="sourcePoint" />
            <mxPoint x="330" y="853" as="targetPoint" />
          </mxGeometry>
        </mxCell>
        <mxCell id="SPA56wAMmxe-K7njHeTv-38" value="Prediction of Obstacle Trajectory" style="rounded=0;whiteSpace=wrap;html=1;fillColor=light-dark(#E3C800,#FFFF00);fontColor=light-dark(#000000,#000000);strokeColor=#B09500;" parent="1" vertex="1">
          <mxGeometry x="132.5" y="670" width="97.5" height="60.5" as="geometry" />
        </mxCell>
        <mxCell id="SPA56wAMmxe-K7njHeTv-39" value="Sensing Radius" style="rounded=0;whiteSpace=wrap;html=1;fillColor=light-dark(#E3C800,#FFFF00);fontColor=light-dark(#000000,#000000);strokeColor=#B09500;" parent="1" vertex="1">
          <mxGeometry x="264.38" y="680" width="70" height="50.5" as="geometry" />
        </mxCell>
        <mxCell id="SPA56wAMmxe-K7njHeTv-40" value="" style="endArrow=classic;html=1;rounded=0;strokeColor=light-dark(#000000,#000000);exitX=0.5;exitY=1;exitDx=0;exitDy=0;" parent="1" source="SPA56wAMmxe-K7njHeTv-39" edge="1">
          <mxGeometry width="50" height="50" relative="1" as="geometry">
            <mxPoint x="192" y="790" as="sourcePoint" />
            <mxPoint x="260" y="810" as="targetPoint" />
          </mxGeometry>
        </mxCell>
        <mxCell id="SPA56wAMmxe-K7njHeTv-42" value="Far away Dynamic Obstacle" style="rounded=0;whiteSpace=wrap;html=1;fillColor=light-dark(#E3C800,#FFFF00);fontColor=light-dark(#000000,#000000);strokeColor=#B09500;" parent="1" vertex="1">
          <mxGeometry x="460" y="767.5" width="70" height="50.5" as="geometry" />
        </mxCell>
        <mxCell id="SPA56wAMmxe-K7njHeTv-43" value="" style="endArrow=classic;html=1;rounded=0;strokeColor=light-dark(#000000,#000000);exitX=0.376;exitY=1.031;exitDx=0;exitDy=0;entryX=0;entryY=0.5;entryDx=0;entryDy=0;exitPerimeter=0;" parent="1" source="SPA56wAMmxe-K7njHeTv-42" target="TbScQdoDC3WaG0IKX4vc-9" edge="1">
          <mxGeometry width="50" height="50" relative="1" as="geometry">
            <mxPoint x="504" y="818" as="sourcePoint" />
            <mxPoint x="443.8702425971362" y="863.6297574028638" as="targetPoint" />
          </mxGeometry>
        </mxCell>
        <mxCell id="TbScQdoDC3WaG0IKX4vc-4" value="Global Goal" style="rounded=0;whiteSpace=wrap;html=1;fillColor=light-dark(#E3C800,#FFFF00);fontColor=light-dark(#000000,#000000);strokeColor=#B09500;" parent="1" vertex="1">
          <mxGeometry x="669.9982540694798" y="450" width="70" height="50.5" as="geometry" />
        </mxCell>
        <mxCell id="TbScQdoDC3WaG0IKX4vc-5" value="" style="endArrow=classic;html=1;rounded=0;strokeColor=light-dark(#000000,#000000);exitX=0;exitY=0.5;exitDx=0;exitDy=0;entryX=1;entryY=0.5;entryDx=0;entryDy=0;" parent="1" source="TbScQdoDC3WaG0IKX4vc-4" target="SPA56wAMmxe-K7njHeTv-10" edge="1">
          <mxGeometry width="50" height="50" relative="1" as="geometry">
            <mxPoint x="693.9982540694798" y="600" as="sourcePoint" />
            <mxPoint x="650" y="550" as="targetPoint" />
          </mxGeometry>
        </mxCell>
        <mxCell id="TbScQdoDC3WaG0IKX4vc-6" value="" style="shape=image;verticalLabelPosition=bottom;labelBackgroundColor=default;verticalAlign=top;aspect=fixed;imageAspect=0;image=https://www.freecads.com/media/thumb/fit/501x353/5bb5f68903497.jpg;" parent="1" vertex="1">
          <mxGeometry x="51.49" y="440" width="212.89" height="150" as="geometry" />
        </mxCell>
        <mxCell id="TbScQdoDC3WaG0IKX4vc-12" value="" style="edgeStyle=orthogonalEdgeStyle;rounded=0;orthogonalLoop=1;jettySize=auto;html=1;" parent="1" source="TbScQdoDC3WaG0IKX4vc-9" edge="1">
          <mxGeometry relative="1" as="geometry">
            <mxPoint x="434.99766952966365" y="944.9976695296637" as="targetPoint" />
          </mxGeometry>
        </mxCell>
        <mxCell id="TbScQdoDC3WaG0IKX4vc-9" value="" style="triangle;whiteSpace=wrap;html=1;rotation=-210;" parent="1" vertex="1">
          <mxGeometry x="424.9976695296637" y="859.9976695296638" width="20" height="30" as="geometry" />
        </mxCell>
        <mxCell id="TbScQdoDC3WaG0IKX4vc-13" value="" style="triangle;whiteSpace=wrap;html=1;rotation=-135;" parent="1" vertex="1">
          <mxGeometry x="439.9976695296637" y="979.9976695296638" width="20" height="30" as="geometry" />
        </mxCell>
        <mxCell id="TbScQdoDC3WaG0IKX4vc-14" value="Static Obstacles" style="rounded=0;whiteSpace=wrap;html=1;fillColor=light-dark(#E3C800,#FFFF00);fontColor=light-dark(#000000,#000000);strokeColor=#B09500;" parent="1" vertex="1">
          <mxGeometry x="-40" y="708.97" width="70" height="50.5" as="geometry" />
        </mxCell>
        <mxCell id="TbScQdoDC3WaG0IKX4vc-15" value="" style="endArrow=classic;html=1;rounded=0;strokeColor=light-dark(#000000,#000000);exitX=0.376;exitY=1.031;exitDx=0;exitDy=0;exitPerimeter=0;" parent="1" source="TbScQdoDC3WaG0IKX4vc-14" edge="1">
          <mxGeometry width="50" height="50" relative="1" as="geometry">
            <mxPoint x="4" y="759.47" as="sourcePoint" />
            <mxPoint x="140" y="830" as="targetPoint" />
          </mxGeometry>
        </mxCell>
        <mxCell id="TbScQdoDC3WaG0IKX4vc-16" value="Agent" style="rounded=0;whiteSpace=wrap;html=1;fillColor=light-dark(#E3C800,#FFFF00);fontColor=light-dark(#000000,#000000);strokeColor=#B09500;" parent="1" vertex="1">
          <mxGeometry x="132.5" y="1061.47" width="70" height="50.5" as="geometry" />
        </mxCell>
        <mxCell id="TbScQdoDC3WaG0IKX4vc-17" value="" style="endArrow=classic;html=1;rounded=0;strokeColor=light-dark(#000000,#000000);exitX=0.5;exitY=0;exitDx=0;exitDy=0;entryX=0.279;entryY=0.235;entryDx=0;entryDy=0;entryPerimeter=0;" parent="1" source="TbScQdoDC3WaG0IKX4vc-16" target="SPA56wAMmxe-K7njHeTv-32" edge="1">
          <mxGeometry width="50" height="50" relative="1" as="geometry">
            <mxPoint x="176.5" y="1111.97" as="sourcePoint" />
            <mxPoint x="382.46411241153373" y="1049.9972293194967" as="targetPoint" />
          </mxGeometry>
        </mxCell>
        <mxCell id="TbScQdoDC3WaG0IKX4vc-18" value="" style="endArrow=classic;html=1;rounded=0;strokeColor=light-dark(#000000,#000000);entryX=0.435;entryY=0.506;entryDx=0;entryDy=0;entryPerimeter=0;" parent="1" source="SPA56wAMmxe-K7njHeTv-42" target="TbScQdoDC3WaG0IKX4vc-13" edge="1">
          <mxGeometry width="50" height="50" relative="1" as="geometry">
            <mxPoint x="552" y="900" as="sourcePoint" />
            <mxPoint x="510" y="950" as="targetPoint" />
          </mxGeometry>
        </mxCell>
        <mxCell id="uVl9msC-3Oj0vJ0fN8xo-1" value="" style="whiteSpace=wrap;html=1;aspect=fixed;fillColor=light-dark(#60A917,#999999);fontColor=#ffffff;strokeColor=light-dark(#000000,#000000);strokeWidth=4;" parent="1" vertex="1">
          <mxGeometry x="-714.25" y="379.25" width="533" height="533" as="geometry" />
        </mxCell>
        <mxCell id="uVl9msC-3Oj0vJ0fN8xo-2" value="" style="ellipse;whiteSpace=wrap;html=1;fillColor=light-dark(#FFFFFF,#99FF99);strokeColor=light-dark(#000000,#000000);strokeWidth=3;" parent="1" vertex="1">
          <mxGeometry x="-292.25" y="422.25" width="76" height="75" as="geometry" />
        </mxCell>
        <mxCell id="uVl9msC-3Oj0vJ0fN8xo-3" value="" style="ellipse;whiteSpace=wrap;html=1;fillColor=light-dark(#FFFFFF,#FF3333);strokeColor=light-dark(#000000,#000000);strokeWidth=3;" parent="1" vertex="1">
          <mxGeometry x="-260" y="454.25" width="11.5" height="11" as="geometry" />
        </mxCell>
        <mxCell id="uVl9msC-3Oj0vJ0fN8xo-4" value="" style="triangle;whiteSpace=wrap;html=1;rotation=-90;fillColor=light-dark(#FFFFFF,#FF8000);strokeColor=light-dark(#000000,#000000);strokeWidth=3;" parent="1" vertex="1">
          <mxGeometry x="-640.25" y="811.25" width="24" height="30" as="geometry" />
        </mxCell>
        <mxCell id="uVl9msC-3Oj0vJ0fN8xo-5" value="" style="ellipse;whiteSpace=wrap;html=1;aspect=fixed;fillColor=light-dark(#FFFFFF,#FFB570);strokeColor=light-dark(#000000,#000000);strokeWidth=3;" parent="1" vertex="1">
          <mxGeometry x="-572.25" y="645.25" width="80" height="80" as="geometry" />
        </mxCell>
        <mxCell id="uVl9msC-3Oj0vJ0fN8xo-6" value="" style="ellipse;whiteSpace=wrap;html=1;aspect=fixed;" parent="1" vertex="1">
          <mxGeometry x="-407.25" y="586.25" width="80" height="80" as="geometry" />
        </mxCell>
        <mxCell id="uVl9msC-3Oj0vJ0fN8xo-7" value="" style="ellipse;whiteSpace=wrap;html=1;aspect=fixed;" parent="1" vertex="1">
          <mxGeometry x="-501.25" y="468.25" width="80" height="80" as="geometry" />
        </mxCell>
        <mxCell id="uVl9msC-3Oj0vJ0fN8xo-8" value="" style="ellipse;whiteSpace=wrap;html=1;aspect=fixed;" parent="1" vertex="1">
          <mxGeometry x="-284.25" y="545.25" width="80" height="80" as="geometry" />
        </mxCell>
        <mxCell id="uVl9msC-3Oj0vJ0fN8xo-9" value="" style="ellipse;whiteSpace=wrap;html=1;fillColor=none;dashed=1;dashPattern=1 2;strokeColor=light-dark(#000000,#7F00FF);strokeWidth=5;" parent="1" vertex="1">
          <mxGeometry x="-780" y="684.75" width="303.5" height="291.5" as="geometry" />
        </mxCell>
        <mxCell id="uVl9msC-3Oj0vJ0fN8xo-10" value="" style="endArrow=classic;html=1;rounded=0;strokeWidth=3;" parent="1" source="uVl9msC-3Oj0vJ0fN8xo-13" edge="1">
          <mxGeometry width="50" height="50" relative="1" as="geometry">
            <mxPoint x="-627.63" y="828.25" as="sourcePoint" />
            <mxPoint x="-257.63" y="462.25" as="targetPoint" />
          </mxGeometry>
        </mxCell>
        <mxCell id="uVl9msC-3Oj0vJ0fN8xo-11" value="" style="ellipse;whiteSpace=wrap;html=1;aspect=fixed;" parent="1" vertex="1">
          <mxGeometry x="-561.25" y="656.25" width="58" height="58" as="geometry" />
        </mxCell>
        <mxCell id="uVl9msC-3Oj0vJ0fN8xo-12" value="" style="endArrow=classic;html=1;rounded=0;strokeWidth=3;" parent="1" target="uVl9msC-3Oj0vJ0fN8xo-13" edge="1">
          <mxGeometry width="50" height="50" relative="1" as="geometry">
            <mxPoint x="-627.63" y="828.25" as="sourcePoint" />
            <mxPoint x="-257.63" y="462.25" as="targetPoint" />
          </mxGeometry>
        </mxCell>
        <mxCell id="uVl9msC-3Oj0vJ0fN8xo-13" value="" style="ellipse;whiteSpace=wrap;html=1;fillColor=light-dark(#FFFFFF,#99FF99);" parent="1" vertex="1">
          <mxGeometry x="-551.63" y="742.25" width="12" height="12" as="geometry" />
        </mxCell>
        <mxCell id="uVl9msC-3Oj0vJ0fN8xo-14" value="" style="endArrow=classic;html=1;rounded=0;strokeWidth=3;curved=1;dashed=1;dashPattern=1 2;strokeColor=light-dark(#000000,#0000CC);" parent="1" edge="1">
          <mxGeometry width="50" height="50" relative="1" as="geometry">
            <mxPoint x="-628.25" y="815.25" as="sourcePoint" />
            <mxPoint x="-544.63" y="748.25" as="targetPoint" />
            <Array as="points">
              <mxPoint x="-640.25" y="777.25" />
              <mxPoint x="-586.25" y="782.25" />
            </Array>
          </mxGeometry>
        </mxCell>
        <mxCell id="uVl9msC-3Oj0vJ0fN8xo-15" value="" style="whiteSpace=wrap;html=1;aspect=fixed;fillColor=light-dark(#60A917,#999999);fontColor=#ffffff;strokeColor=light-dark(#000000,#000000);strokeWidth=4;" parent="1" vertex="1">
          <mxGeometry x="-724.25" y="1061.47" width="533" height="533" as="geometry" />
        </mxCell>
        <mxCell id="uVl9msC-3Oj0vJ0fN8xo-16" value="" style="ellipse;whiteSpace=wrap;html=1;fillColor=light-dark(#FFFFFF,#99FF99);strokeColor=light-dark(#000000,#000000);strokeWidth=3;" parent="1" vertex="1">
          <mxGeometry x="-302.25" y="1104.47" width="76" height="75" as="geometry" />
        </mxCell>
        <mxCell id="uVl9msC-3Oj0vJ0fN8xo-17" value="" style="ellipse;whiteSpace=wrap;html=1;fillColor=light-dark(#FFFFFF,#FF3333);strokeColor=light-dark(#000000,#000000);strokeWidth=3;" parent="1" vertex="1">
          <mxGeometry x="-270" y="1136.47" width="11.5" height="11" as="geometry" />
        </mxCell>
        <mxCell id="uVl9msC-3Oj0vJ0fN8xo-18" value="" style="triangle;whiteSpace=wrap;html=1;rotation=-90;fillColor=light-dark(#FFFFFF,#FF8000);strokeColor=light-dark(#000000,#000000);strokeWidth=3;" parent="1" vertex="1">
          <mxGeometry x="-650.25" y="1493.47" width="24" height="30" as="geometry" />
        </mxCell>
        <mxCell id="uVl9msC-3Oj0vJ0fN8xo-19" value="" style="ellipse;whiteSpace=wrap;html=1;aspect=fixed;" parent="1" vertex="1">
          <mxGeometry x="-582.25" y="1327.47" width="80" height="80" as="geometry" />
        </mxCell>
        <mxCell id="uVl9msC-3Oj0vJ0fN8xo-20" value="" style="ellipse;whiteSpace=wrap;html=1;aspect=fixed;" parent="1" vertex="1">
          <mxGeometry x="-417.25" y="1268.47" width="80" height="80" as="geometry" />
        </mxCell>
        <mxCell id="uVl9msC-3Oj0vJ0fN8xo-21" value="" style="ellipse;whiteSpace=wrap;html=1;aspect=fixed;" parent="1" vertex="1">
          <mxGeometry x="-511.25" y="1150.47" width="80" height="80" as="geometry" />
        </mxCell>
        <mxCell id="uVl9msC-3Oj0vJ0fN8xo-22" value="" style="ellipse;whiteSpace=wrap;html=1;aspect=fixed;" parent="1" vertex="1">
          <mxGeometry x="-294.25" y="1227.47" width="80" height="80" as="geometry" />
        </mxCell>
        <mxCell id="uVl9msC-3Oj0vJ0fN8xo-23" value="" style="ellipse;whiteSpace=wrap;html=1;fillColor=none;dashed=1;dashPattern=1 2;strokeColor=light-dark(#000000,#7F00FF);strokeWidth=5;" parent="1" vertex="1">
          <mxGeometry x="-790" y="1366.97" width="303.5" height="291.5" as="geometry" />
        </mxCell>
        <mxCell id="uVl9msC-3Oj0vJ0fN8xo-24" value="" style="ellipse;whiteSpace=wrap;html=1;aspect=fixed;strokeColor=none;fillColor=light-dark(#FFFFFF,#00FFFF);" parent="1" vertex="1">
          <mxGeometry x="-684.25" y="1424.47" width="11" height="11" as="geometry" />
        </mxCell>
        <mxCell id="uVl9msC-3Oj0vJ0fN8xo-25" value="" style="ellipse;whiteSpace=wrap;html=1;aspect=fixed;strokeColor=none;fillColor=light-dark(#FFFFFF,#00FFFF);" parent="1" vertex="1">
          <mxGeometry x="-582.25" y="1475.47" width="11" height="11" as="geometry" />
        </mxCell>
        <mxCell id="uVl9msC-3Oj0vJ0fN8xo-26" value="" style="ellipse;whiteSpace=wrap;html=1;aspect=fixed;strokeColor=none;fillColor=light-dark(#FFFFFF,#00FFFF);" parent="1" vertex="1">
          <mxGeometry x="-515.25" y="1460.47" width="11" height="11" as="geometry" />
        </mxCell>
        <mxCell id="uVl9msC-3Oj0vJ0fN8xo-27" value="" style="ellipse;whiteSpace=wrap;html=1;aspect=fixed;strokeColor=none;fillColor=light-dark(#FFFFFF,#00FFFF);" parent="1" vertex="1">
          <mxGeometry x="-532.25" y="1424.47" width="11" height="11" as="geometry" />
        </mxCell>
        <mxCell id="uVl9msC-3Oj0vJ0fN8xo-28" value="" style="ellipse;whiteSpace=wrap;html=1;aspect=fixed;strokeColor=none;fillColor=light-dark(#FFFFFF,#00FFFF);" parent="1" vertex="1">
          <mxGeometry x="-588.25" y="1422.47" width="11" height="11" as="geometry" />
        </mxCell>
        <mxCell id="uVl9msC-3Oj0vJ0fN8xo-29" value="" style="ellipse;whiteSpace=wrap;html=1;aspect=fixed;strokeColor=none;fillColor=light-dark(#FFFFFF,#00FFFF);" parent="1" vertex="1">
          <mxGeometry x="-577.25" y="1551.47" width="11" height="11" as="geometry" />
        </mxCell>
        <mxCell id="uVl9msC-3Oj0vJ0fN8xo-30" value="" style="ellipse;whiteSpace=wrap;html=1;aspect=fixed;strokeColor=none;fillColor=light-dark(#FFFFFF,#00FFFF);" parent="1" vertex="1">
          <mxGeometry x="-711.25" y="1562.47" width="11" height="11" as="geometry" />
        </mxCell>
        <mxCell id="uVl9msC-3Oj0vJ0fN8xo-31" value="" style="ellipse;whiteSpace=wrap;html=1;aspect=fixed;strokeColor=none;fillColor=light-dark(#FFFFFF,#00FFFF);" parent="1" vertex="1">
          <mxGeometry x="-715.25" y="1479.47" width="11" height="11" as="geometry" />
        </mxCell>
        <mxCell id="uVl9msC-3Oj0vJ0fN8xo-32" value="" style="ellipse;whiteSpace=wrap;html=1;aspect=fixed;strokeColor=none;fillColor=light-dark(#FFFFFF,#00FFFF);" parent="1" vertex="1">
          <mxGeometry x="-643.75" y="1460.47" width="11" height="11" as="geometry" />
        </mxCell>
        <mxCell id="uVl9msC-3Oj0vJ0fN8xo-33" value="" style="ellipse;whiteSpace=wrap;html=1;aspect=fixed;strokeColor=none;fillColor=light-dark(#FFFFFF,#00FFFF);" parent="1" vertex="1">
          <mxGeometry x="-554.25" y="1413.47" width="11" height="11" as="geometry" />
        </mxCell>
        <mxCell id="uVl9msC-3Oj0vJ0fN8xo-56" style="edgeStyle=orthogonalEdgeStyle;rounded=0;orthogonalLoop=1;jettySize=auto;html=1;exitDx=0;exitDy=0;exitX=0.991;exitY=0.703;exitPerimeter=0;" parent="1" source="uVl9msC-3Oj0vJ0fN8xo-34" edge="1">
          <mxGeometry relative="1" as="geometry">
            <mxPoint x="380" y="1390" as="sourcePoint" />
            <mxPoint x="480" y="1390" as="targetPoint" />
            <Array as="points">
              <mxPoint x="480" y="1390" />
            </Array>
          </mxGeometry>
        </mxCell>
        <mxCell id="uVl9msC-3Oj0vJ0fN8xo-91" value="Next&lt;div&gt;Robot&lt;/div&gt;&lt;div&gt;State&lt;/div&gt;" style="edgeLabel;html=1;align=center;verticalAlign=middle;resizable=0;points=[];" parent="uVl9msC-3Oj0vJ0fN8xo-56" vertex="1" connectable="0">
          <mxGeometry x="0.1779" y="-1" relative="1" as="geometry">
            <mxPoint x="-11" y="-24" as="offset" />
          </mxGeometry>
        </mxCell>
        <mxCell id="5FRFhFm-bMS0Uy9U0a_G-7" value="\(rb_{t+1}\)" style="edgeLabel;html=1;align=center;verticalAlign=middle;resizable=0;points=[];" parent="uVl9msC-3Oj0vJ0fN8xo-56" vertex="1" connectable="0">
          <mxGeometry x="0.3091" relative="1" as="geometry">
            <mxPoint x="-16" y="10" as="offset" />
          </mxGeometry>
        </mxCell>
        <mxCell id="uVl9msC-3Oj0vJ0fN8xo-34" value="Plant" style="rounded=0;whiteSpace=wrap;html=1;" parent="1" vertex="1">
          <mxGeometry x="290" y="1337.47" width="120" height="60" as="geometry" />
        </mxCell>
        <mxCell id="uVl9msC-3Oj0vJ0fN8xo-36" style="edgeStyle=orthogonalEdgeStyle;rounded=0;orthogonalLoop=1;jettySize=auto;html=1;exitX=1;exitY=0.5;exitDx=0;exitDy=0;entryX=0;entryY=0.5;entryDx=0;entryDy=0;" parent="1" source="uVl9msC-3Oj0vJ0fN8xo-35" target="uVl9msC-3Oj0vJ0fN8xo-34" edge="1">
          <mxGeometry relative="1" as="geometry" />
        </mxCell>
        <mxCell id="uVl9msC-3Oj0vJ0fN8xo-37" value="\(u_{t}\)" style="edgeLabel;html=1;align=center;verticalAlign=middle;resizable=0;points=[];" parent="uVl9msC-3Oj0vJ0fN8xo-36" vertex="1" connectable="0">
          <mxGeometry x="-0.4618" relative="1" as="geometry">
            <mxPoint x="9" y="-10" as="offset" />
          </mxGeometry>
        </mxCell>
        <mxCell id="uVl9msC-3Oj0vJ0fN8xo-35" value="NMPC solver&lt;div&gt;with defined Cost&amp;nbsp;&lt;/div&gt;&lt;div&gt;and CBF Constraints&lt;/div&gt;" style="rounded=0;whiteSpace=wrap;html=1;" parent="1" vertex="1">
          <mxGeometry x="110" y="1337.47" width="120" height="60" as="geometry" />
        </mxCell>
        <mxCell id="uVl9msC-3Oj0vJ0fN8xo-65" style="edgeStyle=orthogonalEdgeStyle;rounded=0;orthogonalLoop=1;jettySize=auto;html=1;" parent="1" target="uVl9msC-3Oj0vJ0fN8xo-38" edge="1">
          <mxGeometry relative="1" as="geometry">
            <mxPoint x="150" y="1470" as="sourcePoint" />
          </mxGeometry>
        </mxCell>
        <mxCell id="uVl9msC-3Oj0vJ0fN8xo-67" value="History of&amp;nbsp;&lt;div&gt;Obstacle&amp;nbsp;&lt;/div&gt;&lt;div&gt;Trajectories&lt;/div&gt;" style="edgeLabel;html=1;align=center;verticalAlign=middle;resizable=0;points=[];" parent="uVl9msC-3Oj0vJ0fN8xo-65" vertex="1" connectable="0">
          <mxGeometry x="-0.048" y="-1" relative="1" as="geometry">
            <mxPoint x="-2" y="-23" as="offset" />
          </mxGeometry>
        </mxCell>
        <mxCell id="5FRFhFm-bMS0Uy9U0a_G-1" value="\begin{bmatrix} (\mu_{i,t}, \sigma_{i,t}) \\ (\mu_{i,t-1}, \sigma_{i,t-1}) \\ \vdots \\(\mu_{i,t-t_n}, \sigma_{i,t-t_n})&amp;nbsp;\end{bmatrix}" style="edgeLabel;html=1;align=center;verticalAlign=middle;resizable=0;points=[];" parent="uVl9msC-3Oj0vJ0fN8xo-65" vertex="1" connectable="0">
          <mxGeometry x="-0.2133" y="-2" relative="1" as="geometry">
            <mxPoint x="5" y="48" as="offset" />
          </mxGeometry>
        </mxCell>
        <mxCell id="uVl9msC-3Oj0vJ0fN8xo-38" value="Obstacle Motion Prediction" style="rounded=0;whiteSpace=wrap;html=1;" parent="1" vertex="1">
          <mxGeometry x="290" y="1440" width="120" height="60" as="geometry" />
        </mxCell>
        <mxCell id="uVl9msC-3Oj0vJ0fN8xo-41" style="edgeStyle=orthogonalEdgeStyle;rounded=0;orthogonalLoop=1;jettySize=auto;html=1;entryX=0.921;entryY=0.576;entryDx=0;entryDy=0;entryPerimeter=0;endArrow=none;endFill=0;" parent="1" source="uVl9msC-3Oj0vJ0fN8xo-38" target="uVl9msC-3Oj0vJ0fN8xo-74" edge="1">
          <mxGeometry relative="1" as="geometry">
            <mxPoint x="460" y="1550" as="targetPoint" />
            <mxPoint x="430" y="1501" as="sourcePoint" />
            <Array as="points">
              <mxPoint x="480" y="1480" />
              <mxPoint x="480" y="1550" />
            </Array>
          </mxGeometry>
        </mxCell>
        <mxCell id="uVl9msC-3Oj0vJ0fN8xo-44" value="Future&amp;nbsp;&lt;div&gt;Obstacle&amp;nbsp;&lt;/div&gt;&lt;div&gt;States&lt;/div&gt;" style="edgeLabel;html=1;align=center;verticalAlign=middle;resizable=0;points=[];" parent="uVl9msC-3Oj0vJ0fN8xo-41" vertex="1" connectable="0">
          <mxGeometry x="-0.6761" y="2" relative="1" as="geometry">
            <mxPoint x="-2" y="-19" as="offset" />
          </mxGeometry>
        </mxCell>
        <mxCell id="uVl9msC-3Oj0vJ0fN8xo-48" value="\((\mu_{i,t+1}, \sigma_{i,t+1})\)" style="edgeLabel;html=1;align=center;verticalAlign=middle;resizable=0;points=[];" parent="uVl9msC-3Oj0vJ0fN8xo-41" vertex="1" connectable="0">
          <mxGeometry x="-0.0817" relative="1" as="geometry">
            <mxPoint y="8" as="offset" />
          </mxGeometry>
        </mxCell>
        <mxCell id="uVl9msC-3Oj0vJ0fN8xo-50" value="RL policy" style="rounded=0;whiteSpace=wrap;html=1;" parent="1" vertex="1">
          <mxGeometry x="290" y="1520" width="120" height="60" as="geometry" />
        </mxCell>
        <mxCell id="uVl9msC-3Oj0vJ0fN8xo-69" style="edgeStyle=orthogonalEdgeStyle;rounded=0;orthogonalLoop=1;jettySize=auto;html=1;" parent="1" source="uVl9msC-3Oj0vJ0fN8xo-50" target="uVl9msC-3Oj0vJ0fN8xo-35" edge="1">
          <mxGeometry relative="1" as="geometry">
            <Array as="points">
              <mxPoint x="80" y="1570" />
              <mxPoint x="80" y="1370" />
            </Array>
            <mxPoint x="120" y="1414" as="targetPoint" />
          </mxGeometry>
        </mxCell>
        <mxCell id="uVl9msC-3Oj0vJ0fN8xo-70" value="\(diag(c_1, c_2, c_3, \ldots, c_{t_n})\)" style="edgeLabel;html=1;align=center;verticalAlign=middle;resizable=0;points=[];" parent="uVl9msC-3Oj0vJ0fN8xo-69" vertex="1" connectable="0">
          <mxGeometry x="-0.5804" y="1" relative="1" as="geometry">
            <mxPoint y="9" as="offset" />
          </mxGeometry>
        </mxCell>
        <mxCell id="uVl9msC-3Oj0vJ0fN8xo-71" value="Multiplication&lt;div&gt;Factor for&amp;nbsp;&lt;/div&gt;&lt;div&gt;Obstacle&lt;br&gt;&lt;div&gt;Variances&lt;/div&gt;&lt;/div&gt;" style="edgeLabel;html=1;align=center;verticalAlign=middle;resizable=0;points=[];" parent="uVl9msC-3Oj0vJ0fN8xo-69" vertex="1" connectable="0">
          <mxGeometry x="0.4136" y="1" relative="1" as="geometry">
            <mxPoint as="offset" />
          </mxGeometry>
        </mxCell>
        <mxCell id="uVl9msC-3Oj0vJ0fN8xo-73" value="" style="endArrow=classic;html=1;rounded=0;exitX=0.815;exitY=0.846;exitDx=0;exitDy=0;exitPerimeter=0;entryX=-0.007;entryY=0.374;entryDx=0;entryDy=0;entryPerimeter=0;" parent="1" source="uVl9msC-3Oj0vJ0fN8xo-74" target="uVl9msC-3Oj0vJ0fN8xo-35" edge="1">
          <mxGeometry width="50" height="50" relative="1" as="geometry">
            <mxPoint x="440" y="1550" as="sourcePoint" />
            <mxPoint x="109" y="1370" as="targetPoint" />
            <Array as="points">
              <mxPoint x="435" y="1600" />
              <mxPoint x="40" y="1600.2" />
              <mxPoint x="40" y="1360" />
            </Array>
          </mxGeometry>
        </mxCell>
        <mxCell id="uVl9msC-3Oj0vJ0fN8xo-85" value="" style="edgeStyle=orthogonalEdgeStyle;rounded=0;orthogonalLoop=1;jettySize=auto;html=1;exitX=0.25;exitY=0.498;exitDx=0;exitDy=0;exitPerimeter=0;entryX=1;entryY=0.5;entryDx=0;entryDy=0;" parent="1" source="uVl9msC-3Oj0vJ0fN8xo-74" target="uVl9msC-3Oj0vJ0fN8xo-50" edge="1">
          <mxGeometry relative="1" as="geometry">
            <mxPoint x="425" y="1549.96" as="sourcePoint" />
            <mxPoint x="410" y="1550" as="targetPoint" />
            <Array as="points" />
          </mxGeometry>
        </mxCell>
        <mxCell id="uVl9msC-3Oj0vJ0fN8xo-74" value="" style="shape=waypoint;sketch=0;fillStyle=solid;size=6;pointerEvents=1;points=[];fillColor=none;resizable=0;rotatable=0;perimeter=centerPerimeter;snapToPoint=1;" parent="1" vertex="1">
          <mxGeometry x="425" y="1540" width="20" height="20" as="geometry" />
        </mxCell>
        <mxCell id="uVl9msC-3Oj0vJ0fN8xo-82" style="edgeStyle=orthogonalEdgeStyle;rounded=0;orthogonalLoop=1;jettySize=auto;html=1;entryX=0.404;entryY=1.196;entryDx=0;entryDy=0;entryPerimeter=0;" parent="1" source="uVl9msC-3Oj0vJ0fN8xo-74" target="uVl9msC-3Oj0vJ0fN8xo-74" edge="1">
          <mxGeometry relative="1" as="geometry" />
        </mxCell>
        <mxCell id="5FRFhFm-bMS0Uy9U0a_G-5" style="edgeStyle=orthogonalEdgeStyle;rounded=0;orthogonalLoop=1;jettySize=auto;html=1;entryX=0.483;entryY=0.117;entryDx=0;entryDy=0;entryPerimeter=0;" parent="1" edge="1">
          <mxGeometry relative="1" as="geometry">
            <mxPoint x="350" y="1418.97" as="sourcePoint" />
            <mxPoint x="350" y="1418.97" as="targetPoint" />
          </mxGeometry>
        </mxCell>
        <mxCell id="5FRFhFm-bMS0Uy9U0a_G-8" value="" style="endArrow=classic;html=1;rounded=0;entryX=0;entryY=0.709;entryDx=0;entryDy=0;entryPerimeter=0;" parent="1" target="uVl9msC-3Oj0vJ0fN8xo-35" edge="1">
          <mxGeometry width="50" height="50" relative="1" as="geometry">
            <mxPoint x="350" y="1419" as="sourcePoint" />
            <mxPoint x="150" y="1420" as="targetPoint" />
            <Array as="points">
              <mxPoint x="220" y="1420" />
              <mxPoint x="90" y="1420" />
              <mxPoint x="90" y="1380" />
            </Array>
          </mxGeometry>
        </mxCell>
        <mxCell id="5FRFhFm-bMS0Uy9U0a_G-12" value="" style="shape=waypoint;sketch=0;fillStyle=solid;size=6;pointerEvents=1;points=[];fillColor=none;resizable=0;rotatable=0;perimeter=centerPerimeter;snapToPoint=1;" parent="1" vertex="1">
          <mxGeometry x="340" y="1409" width="20" height="20" as="geometry" />
        </mxCell>
        <mxCell id="5FRFhFm-bMS0Uy9U0a_G-14" value="" style="endArrow=classic;html=1;rounded=0;exitX=0.501;exitY=0.648;exitDx=0;exitDy=0;exitPerimeter=0;entryX=0.5;entryY=1;entryDx=0;entryDy=0;" parent="1" source="5FRFhFm-bMS0Uy9U0a_G-12" target="uVl9msC-3Oj0vJ0fN8xo-34" edge="1">
          <mxGeometry width="50" height="50" relative="1" as="geometry">
            <mxPoint x="360" y="1410" as="sourcePoint" />
            <mxPoint x="410" y="1360" as="targetPoint" />
          </mxGeometry>
        </mxCell>
        <mxCell id="5FRFhFm-bMS0Uy9U0a_G-17" value="" style="group" parent="1" vertex="1" connectable="0">
          <mxGeometry x="525" y="1420" width="60" height="145" as="geometry" />
        </mxCell>
        <mxCell id="5FRFhFm-bMS0Uy9U0a_G-11" value="" style="endArrow=classic;html=1;rounded=0;exitX=0.596;exitY=0.567;exitDx=0;exitDy=0;exitPerimeter=0;entryX=1;entryY=0.75;entryDx=0;entryDy=0;" parent="5FRFhFm-bMS0Uy9U0a_G-17" source="5FRFhFm-bMS0Uy9U0a_G-12" target="uVl9msC-3Oj0vJ0fN8xo-50" edge="1">
          <mxGeometry width="50" height="50" relative="1" as="geometry">
            <mxPoint x="-170" y="4.470000000000027" as="sourcePoint" />
            <mxPoint x="-10" y="-15.529999999999973" as="targetPoint" />
            <Array as="points">
              <mxPoint x="15" />
              <mxPoint x="15" y="145" />
            </Array>
          </mxGeometry>
        </mxCell>
        <mxCell id="5FRFhFm-bMS0Uy9U0a_G-15" value="\(rb_t\)" style="text;html=1;align=center;verticalAlign=middle;whiteSpace=wrap;rounded=0;" parent="5FRFhFm-bMS0Uy9U0a_G-17" vertex="1">
          <mxGeometry y="50" width="60" height="30" as="geometry" />
        </mxCell>
        <mxCell id="OKezFReIqYCx0WU3zMAx-62" value="" style="group" vertex="1" connectable="0" parent="1">
          <mxGeometry x="138" y="1674" width="272" height="206.27999999999997" as="geometry" />
        </mxCell>
        <mxCell id="OKezFReIqYCx0WU3zMAx-2" value="&lt;b&gt;Plant&lt;/b&gt;" style="rounded=0;whiteSpace=wrap;html=1;fillStyle=solid;fillColor=light-dark(#99FF99,#99FF99);fontColor=light-dark(#000000,#000000);strokeWidth=2;strokeColor=light-dark(#000000,#000000);" vertex="1" parent="OKezFReIqYCx0WU3zMAx-62">
          <mxGeometry x="172" y="6" width="100" height="40" as="geometry" />
        </mxCell>
        <mxCell id="OKezFReIqYCx0WU3zMAx-3" value="&lt;b&gt;Obstacle&lt;/b&gt;&lt;div&gt;&lt;b&gt;Motion&lt;/b&gt;&lt;/div&gt;&lt;div&gt;&lt;b&gt;Prediction&lt;/b&gt;&lt;/div&gt;" style="rounded=0;whiteSpace=wrap;html=1;fillStyle=solid;fillColor=light-dark(#FFFF99,#FFFF99);fontColor=light-dark(#000000,#000000);strokeWidth=2;strokeColor=light-dark(#000000,#000000);" vertex="1" parent="OKezFReIqYCx0WU3zMAx-62">
          <mxGeometry x="172" y="156" width="100" height="50.28" as="geometry" />
        </mxCell>
        <mxCell id="OKezFReIqYCx0WU3zMAx-36" value="" style="edgeStyle=orthogonalEdgeStyle;shape=connector;rounded=0;orthogonalLoop=1;jettySize=auto;html=1;strokeColor=light-dark(#000000,#000000);strokeWidth=2;align=center;verticalAlign=middle;fontFamily=Helvetica;fontSize=11;fontColor=light-dark(#000000,#000000);labelBackgroundColor=none;endArrow=classic;" edge="1" parent="OKezFReIqYCx0WU3zMAx-62" source="OKezFReIqYCx0WU3zMAx-4" target="OKezFReIqYCx0WU3zMAx-34">
          <mxGeometry relative="1" as="geometry" />
        </mxCell>
        <mxCell id="OKezFReIqYCx0WU3zMAx-4" value="&lt;b&gt;RL&lt;/b&gt;&lt;div&gt;&lt;b&gt;Policy&lt;/b&gt;&lt;/div&gt;" style="rounded=0;whiteSpace=wrap;html=1;fillStyle=solid;fillColor=light-dark(#99FFFF,#99FFFF);fontColor=light-dark(#000000,#000000);strokeWidth=2;strokeColor=light-dark(#000000,#000000);" vertex="1" parent="OKezFReIqYCx0WU3zMAx-62">
          <mxGeometry x="2" y="166" width="100" height="40.28" as="geometry" />
        </mxCell>
        <mxCell id="OKezFReIqYCx0WU3zMAx-5" value="&lt;b&gt;NMPC&lt;/b&gt;&lt;div&gt;&lt;b&gt;Solver&lt;/b&gt;&lt;/div&gt;" style="rounded=0;whiteSpace=wrap;html=1;fillStyle=solid;fillColor=light-dark(#FF9999,#FF9999);fontColor=light-dark(#000000,#000000);strokeWidth=2;strokeColor=light-dark(#000000,#000000);" vertex="1" parent="OKezFReIqYCx0WU3zMAx-62">
          <mxGeometry x="2" y="6" width="100" height="39.72" as="geometry" />
        </mxCell>
        <mxCell id="OKezFReIqYCx0WU3zMAx-10" value="" style="endArrow=none;html=1;rounded=0;exitX=0;exitY=0.5;exitDx=0;exitDy=0;entryX=1;entryY=0.5;entryDx=0;entryDy=0;strokeColor=light-dark(#000000,#000000);strokeWidth=2;endFill=0;startArrow=classic;startFill=1;" edge="1" parent="OKezFReIqYCx0WU3zMAx-62" source="OKezFReIqYCx0WU3zMAx-2" target="OKezFReIqYCx0WU3zMAx-5">
          <mxGeometry width="50" height="50" relative="1" as="geometry">
            <mxPoint x="-53" y="26.279999999999973" as="sourcePoint" />
            <mxPoint x="-3" y="-23.720000000000027" as="targetPoint" />
          </mxGeometry>
        </mxCell>
        <mxCell id="OKezFReIqYCx0WU3zMAx-17" value="&lt;div style=&quot;line-height: 70%;&quot;&gt;&lt;div&gt;&lt;span style=&quot;font-size: 8px; line-height: 70%;&quot;&gt;&lt;b&gt;Control&lt;/b&gt;&lt;/span&gt;&lt;/div&gt;&lt;div&gt;&lt;span style=&quot;font-size: 8px; line-height: 70%;&quot;&gt;&lt;b&gt;Input&lt;/b&gt;&lt;/span&gt;&lt;/div&gt;&lt;/div&gt;" style="text;html=1;align=center;verticalAlign=middle;whiteSpace=wrap;rounded=0;fontFamily=Helvetica;fontSize=11;fontColor=light-dark(#000000,#000000);labelBackgroundColor=none;" vertex="1" parent="OKezFReIqYCx0WU3zMAx-62">
          <mxGeometry x="101" y="24" width="66.69" height="24" as="geometry" />
        </mxCell>
        <mxCell id="OKezFReIqYCx0WU3zMAx-18" value="&lt;div style=&quot;line-height: 70%;&quot;&gt;&lt;div&gt;&lt;span style=&quot;font-size: 8px; line-height: 70%;&quot;&gt;&lt;b&gt;Robot&lt;/b&gt;&lt;/span&gt;&lt;/div&gt;&lt;div&gt;&lt;span style=&quot;font-size: 8px; line-height: 70%;&quot;&gt;&lt;b&gt;Current&lt;/b&gt;&lt;/span&gt;&lt;/div&gt;&lt;div&gt;&lt;span style=&quot;font-size: 8px; line-height: 70%;&quot;&gt;&lt;b&gt;State&lt;/b&gt;&lt;/span&gt;&lt;/div&gt;&lt;/div&gt;" style="text;html=1;align=center;verticalAlign=middle;whiteSpace=wrap;rounded=0;fontFamily=Helvetica;fontSize=11;fontColor=light-dark(#000000,#000000);labelBackgroundColor=none;rotation=300;" vertex="1" parent="OKezFReIqYCx0WU3zMAx-62">
          <mxGeometry x="115" y="97.99999999999977" width="66.69" height="29" as="geometry" />
        </mxCell>
        <mxCell id="OKezFReIqYCx0WU3zMAx-19" value="&lt;div style=&quot;line-height: 70%;&quot;&gt;&lt;div&gt;&lt;span style=&quot;font-size: 8px; line-height: 70%;&quot;&gt;&lt;b&gt;Sensed&lt;/b&gt;&lt;/span&gt;&lt;/div&gt;&lt;div&gt;&lt;span style=&quot;font-size: 8px; line-height: 70%;&quot;&gt;&lt;b&gt;Obstacles&lt;/b&gt;&lt;/span&gt;&lt;/div&gt;&lt;/div&gt;" style="text;html=1;align=center;verticalAlign=middle;whiteSpace=wrap;rounded=0;fontFamily=Helvetica;fontSize=11;fontColor=light-dark(#000000,#000000);labelBackgroundColor=none;rotation=0;" vertex="1" parent="OKezFReIqYCx0WU3zMAx-62">
          <mxGeometry x="199" y="59" width="42" height="24" as="geometry" />
        </mxCell>
        <mxCell id="OKezFReIqYCx0WU3zMAx-20" value="&lt;div style=&quot;line-height: 70%;&quot;&gt;&lt;div&gt;&lt;span style=&quot;font-size: 8px; line-height: 70%;&quot;&gt;&lt;b&gt;Predicted&lt;/b&gt;&lt;/span&gt;&lt;/div&gt;&lt;div&gt;&lt;span style=&quot;font-size: 8px; line-height: 70%;&quot;&gt;&lt;b&gt;Obstacle&lt;/b&gt;&lt;/span&gt;&lt;/div&gt;&lt;div&gt;&lt;span style=&quot;font-size: 8px; line-height: 70%;&quot;&gt;&lt;b&gt;Trajectories&lt;/b&gt;&lt;/span&gt;&lt;/div&gt;&lt;/div&gt;" style="text;html=1;align=center;verticalAlign=middle;whiteSpace=wrap;rounded=0;fontFamily=Helvetica;fontSize=11;fontColor=light-dark(#000000,#000000);labelBackgroundColor=none;rotation=0;" vertex="1" parent="OKezFReIqYCx0WU3zMAx-62">
          <mxGeometry x="118" y="175" width="42" height="31" as="geometry" />
        </mxCell>
        <mxCell id="OKezFReIqYCx0WU3zMAx-22" value="&lt;span style=&quot;font-family: Helvetica; font-style: normal; font-variant-ligatures: normal; font-variant-caps: normal; letter-spacing: normal; orphans: 2; text-align: center; text-indent: 0px; text-transform: none; widows: 2; word-spacing: 0px; -webkit-text-stroke-width: 0px; white-space: nowrap; text-decoration-thickness: initial; text-decoration-style: initial; text-decoration-color: initial; float: none; display: inline !important;&quot;&gt;&lt;font style=&quot;font-size: 14px;&quot;&gt;&lt;b style=&quot;&quot;&gt;\(rb_{t}\)&lt;/b&gt;&lt;/font&gt;&lt;/span&gt;" style="text;whiteSpace=wrap;html=1;fontFamily=Helvetica;fontSize=11;fontColor=light-dark(#000000,#000000);labelBackgroundColor=none;fillColor=none;rotation=295;fontStyle=0;labelBorderColor=none;strokeWidth=0;shadow=0;" vertex="1" parent="OKezFReIqYCx0WU3zMAx-62">
          <mxGeometry x="116.43" y="85.88000000000011" width="21.77" height="25.51" as="geometry" />
        </mxCell>
        <mxCell id="OKezFReIqYCx0WU3zMAx-31" value="&lt;b style=&quot;text-wrap-mode: nowrap; font-size: 14px; text-align: center;&quot;&gt;\(So_{t}\)&lt;/b&gt;" style="text;whiteSpace=wrap;html=1;fontFamily=Helvetica;fontSize=11;fontColor=light-dark(#000000,#000000);labelBackgroundColor=none;" vertex="1" parent="OKezFReIqYCx0WU3zMAx-62">
          <mxGeometry x="168" y="55" width="25" height="25.15" as="geometry" />
        </mxCell>
        <mxCell id="OKezFReIqYCx0WU3zMAx-32" value="&lt;b style=&quot;forced-color-adjust: none; font-family: Helvetica; font-style: normal; font-variant-ligatures: normal; font-variant-caps: normal; letter-spacing: normal; orphans: 2; text-indent: 0px; text-transform: none; widows: 2; word-spacing: 0px; -webkit-text-stroke-width: 0px; white-space: nowrap; text-decoration-thickness: initial; text-decoration-style: initial; text-decoration-color: initial; font-size: 14px; text-align: center; box-shadow: none !important;&quot;&gt;&lt;font style=&quot;forced-color-adjust: none; box-shadow: none !important; color: light-dark(rgb(0, 0, 0), rgb(0, 0, 0));&quot;&gt;\(\tau_{t+t_n}\)&lt;/font&gt;&lt;/b&gt;" style="text;whiteSpace=wrap;html=1;fontFamily=Helvetica;fontSize=11;fontColor=light-dark(#000000,#000000);labelBackgroundColor=none;" vertex="1" parent="OKezFReIqYCx0WU3zMAx-62">
          <mxGeometry x="122" y="149" width="37.19" height="26.24" as="geometry" />
        </mxCell>
        <mxCell id="OKezFReIqYCx0WU3zMAx-35" value="" style="edgeStyle=orthogonalEdgeStyle;shape=connector;rounded=0;orthogonalLoop=1;jettySize=auto;html=1;strokeColor=light-dark(#000000,#000000);strokeWidth=2;align=center;verticalAlign=middle;fontFamily=Helvetica;fontSize=11;fontColor=light-dark(#000000,#000000);labelBackgroundColor=none;endArrow=classic;" edge="1" parent="OKezFReIqYCx0WU3zMAx-62" source="OKezFReIqYCx0WU3zMAx-34" target="OKezFReIqYCx0WU3zMAx-5">
          <mxGeometry relative="1" as="geometry" />
        </mxCell>
        <mxCell id="OKezFReIqYCx0WU3zMAx-34" value="&lt;b&gt;CBF Constraint Generation&lt;/b&gt;" style="rounded=0;whiteSpace=wrap;html=1;fillStyle=solid;fillColor=light-dark(#FA6800,#FFB366);fontColor=light-dark(#000000,#000000);strokeWidth=2;strokeColor=light-dark(#000000,#000000);" vertex="1" parent="OKezFReIqYCx0WU3zMAx-62">
          <mxGeometry x="2" y="86" width="100" height="40" as="geometry" />
        </mxCell>
        <mxCell id="OKezFReIqYCx0WU3zMAx-37" value="&lt;div style=&quot;line-height: 70%;&quot;&gt;&lt;div&gt;&lt;span style=&quot;font-size: 8px;&quot;&gt;&lt;b&gt;Uncertainty&lt;/b&gt;&lt;/span&gt;&lt;/div&gt;&lt;div&gt;&lt;span style=&quot;font-size: 8px;&quot;&gt;&lt;b&gt;Bounds&lt;/b&gt;&lt;/span&gt;&lt;/div&gt;&lt;/div&gt;" style="text;html=1;align=center;verticalAlign=middle;whiteSpace=wrap;rounded=0;fontFamily=Helvetica;fontSize=11;fontColor=light-dark(#000000,#000000);labelBackgroundColor=none;rotation=0;" vertex="1" parent="OKezFReIqYCx0WU3zMAx-62">
          <mxGeometry x="51" y="136" width="53" height="29" as="geometry" />
        </mxCell>
        <mxCell id="OKezFReIqYCx0WU3zMAx-38" value="&lt;div style=&quot;line-height: 70%;&quot;&gt;&lt;div&gt;&lt;span style=&quot;font-size: 8px;&quot;&gt;&lt;b&gt;Constraints&lt;/b&gt;&lt;/span&gt;&lt;/div&gt;&lt;/div&gt;" style="text;html=1;align=center;verticalAlign=middle;whiteSpace=wrap;rounded=0;fontFamily=Helvetica;fontSize=11;fontColor=light-dark(#000000,#000000);labelBackgroundColor=none;rotation=0;" vertex="1" parent="OKezFReIqYCx0WU3zMAx-62">
          <mxGeometry x="50" y="56" width="56" height="22" as="geometry" />
        </mxCell>
        <mxCell id="OKezFReIqYCx0WU3zMAx-40" value="&lt;div style=&quot;line-height: 70%;&quot;&gt;&lt;div&gt;&lt;b style=&quot;font-size: 8px; background-color: transparent;&quot;&gt;Obstacles&lt;/b&gt;&lt;/div&gt;&lt;div&gt;&lt;b style=&quot;font-size: 8px; background-color: transparent;&quot;&gt;History&lt;/b&gt;&lt;/div&gt;&lt;/div&gt;" style="text;html=1;align=center;verticalAlign=middle;whiteSpace=wrap;rounded=0;fontFamily=Helvetica;fontSize=11;fontColor=light-dark(#000000,#000000);labelBackgroundColor=none;rotation=0;strokeColor=light-dark(#000000,#000000);strokeWidth=2;fillColor=light-dark(#B266FF,#B266FF);" vertex="1" parent="OKezFReIqYCx0WU3zMAx-62">
          <mxGeometry x="222" y="95" width="50" height="31" as="geometry" />
        </mxCell>
        <mxCell id="OKezFReIqYCx0WU3zMAx-43" value="" style="endArrow=classic;html=1;rounded=0;strokeColor=light-dark(#000000,#000000);strokeWidth=2;align=center;verticalAlign=middle;fontFamily=Helvetica;fontSize=11;fontColor=light-dark(#000000,#000000);labelBackgroundColor=none;edgeStyle=orthogonalEdgeStyle;entryX=0.25;entryY=0;entryDx=0;entryDy=0;exitX=0.25;exitY=1;exitDx=0;exitDy=0;" edge="1" parent="OKezFReIqYCx0WU3zMAx-62" source="OKezFReIqYCx0WU3zMAx-2" target="OKezFReIqYCx0WU3zMAx-3">
          <mxGeometry width="50" height="50" relative="1" as="geometry">
            <mxPoint x="156" y="123" as="sourcePoint" />
            <mxPoint x="206" y="73" as="targetPoint" />
          </mxGeometry>
        </mxCell>
        <mxCell id="OKezFReIqYCx0WU3zMAx-50" value="" style="endArrow=none;html=1;rounded=0;exitX=1;exitY=0.25;exitDx=0;exitDy=0;entryX=-0.001;entryY=0.393;entryDx=0;entryDy=0;strokeColor=light-dark(#000000,#000000);strokeWidth=2;endFill=0;startArrow=classic;startFill=1;entryPerimeter=0;" edge="1" parent="OKezFReIqYCx0WU3zMAx-62" source="OKezFReIqYCx0WU3zMAx-4" target="OKezFReIqYCx0WU3zMAx-3">
          <mxGeometry width="50" height="50" relative="1" as="geometry">
            <mxPoint x="182" y="146" as="sourcePoint" />
            <mxPoint x="112" y="146" as="targetPoint" />
          </mxGeometry>
        </mxCell>
        <mxCell id="OKezFReIqYCx0WU3zMAx-51" value="" style="endArrow=none;html=1;rounded=0;exitX=1;exitY=0;exitDx=0;exitDy=0;entryX=0;entryY=1;entryDx=0;entryDy=0;strokeColor=light-dark(#000000,#000000);strokeWidth=2;endFill=0;startArrow=classic;startFill=1;" edge="1" parent="OKezFReIqYCx0WU3zMAx-62" source="OKezFReIqYCx0WU3zMAx-4" target="OKezFReIqYCx0WU3zMAx-2">
          <mxGeometry width="50" height="50" relative="1" as="geometry">
            <mxPoint x="312" y="146" as="sourcePoint" />
            <mxPoint x="242" y="146" as="targetPoint" />
          </mxGeometry>
        </mxCell>
        <mxCell id="OKezFReIqYCx0WU3zMAx-54" value="" style="endArrow=classic;html=1;rounded=0;strokeColor=light-dark(#000000,#000000);strokeWidth=2;align=center;verticalAlign=middle;fontFamily=Helvetica;fontSize=11;fontColor=light-dark(#000000,#000000);labelBackgroundColor=none;edgeStyle=orthogonalEdgeStyle;entryX=0.393;entryY=-0.011;entryDx=0;entryDy=0;exitX=0;exitY=0.5;exitDx=0;exitDy=0;entryPerimeter=0;" edge="1" parent="OKezFReIqYCx0WU3zMAx-62" source="OKezFReIqYCx0WU3zMAx-40" target="OKezFReIqYCx0WU3zMAx-3">
          <mxGeometry width="50" height="50" relative="1" as="geometry">
            <mxPoint x="212" y="36" as="sourcePoint" />
            <mxPoint x="212" y="146" as="targetPoint" />
          </mxGeometry>
        </mxCell>
        <mxCell id="OKezFReIqYCx0WU3zMAx-55" value="&lt;b style=&quot;text-wrap-mode: nowrap; font-size: 14px; text-align: center;&quot;&gt;\(Ho_{t}\)&lt;/b&gt;" style="text;whiteSpace=wrap;html=1;fontFamily=Helvetica;fontSize=11;fontColor=light-dark(#000000,#000000);labelBackgroundColor=none;" vertex="1" parent="OKezFReIqYCx0WU3zMAx-62">
          <mxGeometry x="219" y="126" width="26" height="24" as="geometry" />
        </mxCell>
        <mxCell id="OKezFReIqYCx0WU3zMAx-56" value="&lt;b style=&quot;text-wrap-mode: nowrap; font-size: 14px; text-align: center;&quot;&gt;\([\sigma_{l}, \sigma_{u}]\)&lt;/b&gt;" style="text;whiteSpace=wrap;html=1;fontFamily=Helvetica;fontSize=11;fontColor=light-dark(#000000,#000000);labelBackgroundColor=none;" vertex="1" parent="OKezFReIqYCx0WU3zMAx-62">
          <mxGeometry y="136" width="23" height="24.15" as="geometry" />
        </mxCell>
        <mxCell id="OKezFReIqYCx0WU3zMAx-59" value="\(\mathcal{C}\)" style="text;whiteSpace=wrap;fontFamily=Helvetica;fontSize=11;fontColor=light-dark(#000000,#000000);labelBackgroundColor=none;fillColor=none;" vertex="1" parent="OKezFReIqYCx0WU3zMAx-62">
          <mxGeometry x="37" y="55" width="14" height="23" as="geometry" />
        </mxCell>
        <mxCell id="OKezFReIqYCx0WU3zMAx-61" value="\(u_{t}\)" style="text;whiteSpace=wrap;fontFamily=Helvetica;fontSize=14;fontColor=light-dark(#000000,#000000);labelBackgroundColor=none;" vertex="1" parent="OKezFReIqYCx0WU3zMAx-62">
          <mxGeometry x="126" width="22.31" height="28" as="geometry" />
        </mxCell>
        <mxCell id="O5Yj0BY--caXqHYr7iZM-70" value="" style="group;rotation=115;" vertex="1" connectable="0" parent="1">
          <mxGeometry x="357.99802082975816" y="2251" width="57.352075248446965" height="82.35801813956277" as="geometry" />
        </mxCell>
        <mxCell id="O5Yj0BY--caXqHYr7iZM-67" value="" style="endArrow=classic;html=1;rounded=0;strokeColor=light-dark(#000000,#000000);strokeWidth=2;align=center;verticalAlign=middle;fontFamily=Helvetica;fontSize=11;fontColor=light-dark(#000000,#000000);labelBackgroundColor=none;exitX=1;exitY=0.5;exitDx=0;exitDy=0;" edge="1" parent="O5Yj0BY--caXqHYr7iZM-70" source="O5Yj0BY--caXqHYr7iZM-56">
          <mxGeometry width="50" height="50" relative="1" as="geometry">
            <mxPoint x="59" y="30" as="sourcePoint" />
            <mxPoint x="61" y="11" as="targetPoint" />
          </mxGeometry>
        </mxCell>
        <mxCell id="O5Yj0BY--caXqHYr7iZM-56" value="" style="rounded=1;whiteSpace=wrap;html=1;strokeColor=light-dark(#000000,#000000);strokeWidth=2;align=left;verticalAlign=top;fontFamily=Helvetica;fontSize=11;fontColor=light-dark(#000000,#000000);labelBackgroundColor=none;fillColor=light-dark(#FFFFFF,#CC0000);gradientColor=none;rotation=-50;" vertex="1" parent="O5Yj0BY--caXqHYr7iZM-70">
          <mxGeometry x="4" y="34" width="48" height="36" as="geometry" />
        </mxCell>
        <mxCell id="O5Yj0BY--caXqHYr7iZM-58" value="" style="rounded=1;whiteSpace=wrap;html=1;strokeColor=light-dark(#000000,#000000);strokeWidth=2;align=left;verticalAlign=top;fontFamily=Helvetica;fontSize=11;fontColor=light-dark(#000000,#000000);labelBackgroundColor=none;fillColor=default;gradientColor=none;rotation=-50;" vertex="1" parent="O5Yj0BY--caXqHYr7iZM-70">
          <mxGeometry x="-8" y="44" width="18" height="9" as="geometry" />
        </mxCell>
        <mxCell id="O5Yj0BY--caXqHYr7iZM-59" value="" style="rounded=1;whiteSpace=wrap;html=1;strokeColor=light-dark(#000000,#000000);strokeWidth=2;align=left;verticalAlign=top;fontFamily=Helvetica;fontSize=11;fontColor=light-dark(#000000,#000000);labelBackgroundColor=none;fillColor=default;gradientColor=none;rotation=-50;" vertex="1" parent="O5Yj0BY--caXqHYr7iZM-70">
          <mxGeometry x="26" y="75" width="18" height="9" as="geometry" />
        </mxCell>
        <mxCell id="O5Yj0BY--caXqHYr7iZM-69" value="" style="endArrow=none;dashed=1;html=1;strokeWidth=2;rounded=0;strokeColor=light-dark(#000000,#000000);align=center;verticalAlign=middle;fontFamily=Helvetica;fontSize=11;fontColor=light-dark(#000000,#000000);labelBackgroundColor=none;exitX=0.5;exitY=0;exitDx=0;exitDy=0;entryX=0.5;entryY=1;entryDx=0;entryDy=0;dashPattern=1 1;" edge="1" parent="O5Yj0BY--caXqHYr7iZM-70" source="O5Yj0BY--caXqHYr7iZM-58" target="O5Yj0BY--caXqHYr7iZM-59">
          <mxGeometry width="50" height="50" relative="1" as="geometry">
            <mxPoint x="30" y="100" as="sourcePoint" />
            <mxPoint x="96" y="76" as="targetPoint" />
          </mxGeometry>
        </mxCell>
        <mxCell id="O5Yj0BY--caXqHYr7iZM-72" value="" style="html=1;verticalLabelPosition=bottom;align=center;labelBackgroundColor=#ffffff;verticalAlign=top;strokeWidth=3;strokeColor=#0080F0;shadow=0;dashed=0;shape=mxgraph.ios7.icons.flag;rounded=0;fontFamily=Helvetica;fontSize=11;fontColor=light-dark(#000000,#000000);fillColor=light-dark(#FFFFFF,#66FF66);gradientColor=none;" vertex="1" parent="1">
          <mxGeometry x="625" y="2037" width="30" height="44" as="geometry" />
        </mxCell>
        <mxCell id="O5Yj0BY--caXqHYr7iZM-73" value="" style="endArrow=classic;html=1;rounded=0;strokeColor=light-dark(#000000,#000000);strokeWidth=2;align=center;verticalAlign=middle;fontFamily=Helvetica;fontSize=11;fontColor=light-dark(#000000,#000000);labelBackgroundColor=none;snapToPoint=0;anchorPointDirection=0;dashed=1;dashPattern=1 1;editable=1;movable=0;resizable=1;rotatable=1;deletable=1;locked=0;connectable=1;bendable=0;cloneable=1;" edge="1" parent="1">
          <mxGeometry width="50" height="50" relative="1" as="geometry">
            <mxPoint x="360" y="2110" as="sourcePoint" />
            <mxPoint x="480" y="2110" as="targetPoint" />
          </mxGeometry>
        </mxCell>
        <mxCell id="O5Yj0BY--caXqHYr7iZM-75" value="" style="endArrow=classic;html=1;rounded=0;strokeColor=light-dark(#000000,#000000);strokeWidth=2;align=center;verticalAlign=middle;fontFamily=Helvetica;fontSize=11;fontColor=light-dark(#000000,#000000);labelBackgroundColor=none;snapToPoint=0;anchorPointDirection=0;editable=1;movable=0;resizable=1;rotatable=1;deletable=1;locked=0;connectable=1;entryX=0.5;entryY=0.5;entryDx=0;entryDy=0;entryPerimeter=0;dashed=1;dashPattern=1 1;" edge="1" parent="1" target="O5Yj0BY--caXqHYr7iZM-77">
          <mxGeometry width="50" height="50" relative="1" as="geometry">
            <mxPoint x="640" y="2190" as="sourcePoint" />
            <mxPoint x="360" y="2190" as="targetPoint" />
          </mxGeometry>
        </mxCell>
        <mxCell id="O5Yj0BY--caXqHYr7iZM-76" value="" style="ellipse;whiteSpace=wrap;html=1;aspect=fixed;rounded=0;strokeColor=light-dark(#000000,#000000);strokeWidth=1;align=left;verticalAlign=top;fontFamily=Helvetica;fontSize=11;fontColor=light-dark(#000000,#000000);labelBackgroundColor=none;fillColor=none;gradientColor=none;movable=1;recursiveResize=1;connectable=0;allowArrows=0;" vertex="1" parent="1">
          <mxGeometry x="460" y="2090" width="40" height="40" as="geometry" />
        </mxCell>
        <mxCell id="O5Yj0BY--caXqHYr7iZM-77" value="" style="ellipse;whiteSpace=wrap;html=1;aspect=fixed;rounded=0;strokeColor=light-dark(#000000,#000000);strokeWidth=1;align=left;verticalAlign=top;fontFamily=Helvetica;fontSize=11;fontColor=light-dark(#000000,#000000);labelBackgroundColor=none;fillColor=none;gradientColor=none;" vertex="1" parent="1">
          <mxGeometry x="480" y="2150" width="80" height="80" as="geometry" />
        </mxCell>
        <mxCell id="O5Yj0BY--caXqHYr7iZM-79" value="&lt;div&gt;&lt;font style=&quot;background-color: light-dark(#ffffff, var(--ge-dark-color, #121212));&quot;&gt;OBSTACLE&lt;/font&gt;&lt;/div&gt;" style="rounded=0;whiteSpace=wrap;html=1;strokeColor=light-dark(#000000,#000000);strokeWidth=2;align=center;verticalAlign=middle;fontFamily=Helvetica;fontSize=11;fontColor=light-dark(#000000,#FFFFFF);labelBackgroundColor=none;fillColor=default;gradientColor=none;fillStyle=cross-hatch;glass=0;shadow=0;" vertex="1" parent="1">
          <mxGeometry x="320" y="2000" width="120" height="70" as="geometry" />
        </mxCell>
        <mxCell id="O5Yj0BY--caXqHYr7iZM-80" value="&lt;div&gt;&lt;span style=&quot;&quot;&gt;OBSTACLE&lt;/span&gt;&lt;/div&gt;" style="rounded=0;whiteSpace=wrap;html=1;strokeColor=light-dark(#000000,#000000);strokeWidth=2;align=center;verticalAlign=middle;fontFamily=Helvetica;fontSize=11;fontColor=light-dark(#FFFFFF,#FFFFFF);labelBackgroundColor=default;fillColor=default;gradientColor=none;fillStyle=cross-hatch;" vertex="1" parent="1">
          <mxGeometry x="540" y="2240" width="140" height="110" as="geometry" />
        </mxCell>
        <mxCell id="O5Yj0BY--caXqHYr7iZM-82" value="" style="ellipse;whiteSpace=wrap;html=1;aspect=fixed;rounded=0;strokeColor=light-dark(#000000,#000000);strokeWidth=1;align=left;verticalAlign=top;fontFamily=Helvetica;fontSize=11;fontColor=light-dark(#000000,#000000);labelBackgroundColor=none;fillColor=none;gradientColor=none;movable=1;recursiveResize=1;connectable=0;allowArrows=0;" vertex="1" parent="1">
          <mxGeometry x="500" y="2170" width="40" height="40" as="geometry" />
        </mxCell>
        <mxCell id="O5Yj0BY--caXqHYr7iZM-84" value="" style="ellipse;whiteSpace=wrap;html=1;aspect=fixed;rounded=0;strokeColor=none;strokeWidth=1;align=left;verticalAlign=top;fontFamily=Helvetica;fontSize=11;fontColor=light-dark(#000000,#000000);labelBackgroundColor=none;fillColor=light-dark(#FF8000,#FF8000);gradientColor=none;opacity=70;allowArrows=0;connectable=0;" vertex="1" parent="1">
          <mxGeometry x="400" y="2090" width="50" height="50" as="geometry" />
        </mxCell>
        <mxCell id="O5Yj0BY--caXqHYr7iZM-87" value="" style="ellipse;whiteSpace=wrap;html=1;aspect=fixed;rounded=0;strokeColor=none;strokeWidth=1;align=left;verticalAlign=top;fontFamily=Helvetica;fontSize=11;fontColor=light-dark(#000000,#000000);labelBackgroundColor=none;fillColor=light-dark(#FF8000,#FF8000);gradientColor=none;opacity=70;allowArrows=0;connectable=0;" vertex="1" parent="1">
          <mxGeometry x="380" y="2100" width="30" height="30" as="geometry" />
        </mxCell>
        <mxCell id="O5Yj0BY--caXqHYr7iZM-88" value="" style="ellipse;whiteSpace=wrap;html=1;aspect=fixed;rounded=0;strokeColor=none;strokeWidth=1;align=left;verticalAlign=top;fontFamily=Helvetica;fontSize=11;fontColor=light-dark(#000000,#000000);labelBackgroundColor=none;fillColor=light-dark(#FF8000,#FF8000);gradientColor=none;opacity=70;allowArrows=0;connectable=0;" vertex="1" parent="1">
          <mxGeometry x="350" y="2090" width="30" height="30" as="geometry" />
        </mxCell>
        <mxCell id="SPA56wAMmxe-K7njHeTv-27" value="Obstacles" parent="0" />
      </root>
    </mxGraphModel>
  </diagram>
  <diagram id="5Bj8MgPD84dJt04P6DRR" name="Page-2">
    <mxGraphModel dx="1695" dy="907" grid="0" gridSize="10" guides="1" tooltips="1" connect="1" arrows="1" fold="1" page="1" pageScale="1" pageWidth="850" pageHeight="1100" math="0" shadow="0">
      <root>
        <mxCell id="0" />
        <mxCell id="1" parent="0" />
        <mxCell id="ws33cRkgydwae4PPvY6L-1" value="" style="group" vertex="1" connectable="0" parent="1">
          <mxGeometry x="191" y="474" width="272" height="206.27999999999997" as="geometry" />
        </mxCell>
        <mxCell id="ws33cRkgydwae4PPvY6L-2" value="&lt;b&gt;Plant&lt;/b&gt;" style="rounded=0;whiteSpace=wrap;html=1;fillStyle=solid;fillColor=light-dark(#FFFFFF,#99FF99);fontColor=light-dark(#000000,#000000);strokeWidth=2;strokeColor=light-dark(#000000,#000000);" vertex="1" parent="ws33cRkgydwae4PPvY6L-1">
          <mxGeometry x="172" y="6" width="100" height="40" as="geometry" />
        </mxCell>
        <mxCell id="ws33cRkgydwae4PPvY6L-3" value="&lt;b&gt;Obstacle&lt;/b&gt;&lt;div&gt;&lt;b&gt;Motion&lt;/b&gt;&lt;/div&gt;&lt;div&gt;&lt;b&gt;Prediction&lt;/b&gt;&lt;/div&gt;" style="rounded=0;whiteSpace=wrap;html=1;fillStyle=solid;fillColor=light-dark(#FFFFFF,#FFFF99);fontColor=light-dark(#000000,#000000);strokeWidth=2;strokeColor=light-dark(#000000,#000000);" vertex="1" parent="ws33cRkgydwae4PPvY6L-1">
          <mxGeometry x="172" y="156" width="100" height="50.28" as="geometry" />
        </mxCell>
        <mxCell id="ws33cRkgydwae4PPvY6L-4" value="" style="edgeStyle=orthogonalEdgeStyle;shape=connector;rounded=0;orthogonalLoop=1;jettySize=auto;html=1;strokeColor=light-dark(#000000,#000000);strokeWidth=2;align=center;verticalAlign=middle;fontFamily=Helvetica;fontSize=11;fontColor=light-dark(#000000,#000000);labelBackgroundColor=none;endArrow=classic;" edge="1" parent="ws33cRkgydwae4PPvY6L-1" source="ws33cRkgydwae4PPvY6L-5" target="ws33cRkgydwae4PPvY6L-16">
          <mxGeometry relative="1" as="geometry" />
        </mxCell>
        <mxCell id="ws33cRkgydwae4PPvY6L-5" value="&lt;b&gt;RL&lt;/b&gt;&lt;div&gt;&lt;b&gt;Policy&lt;/b&gt;&lt;/div&gt;" style="rounded=0;whiteSpace=wrap;html=1;fillStyle=solid;fillColor=light-dark(#FFFFFF,#99FFFF);fontColor=light-dark(#000000,#000000);strokeWidth=2;strokeColor=light-dark(#000000,#000000);" vertex="1" parent="ws33cRkgydwae4PPvY6L-1">
          <mxGeometry x="2" y="166" width="100" height="40.28" as="geometry" />
        </mxCell>
        <mxCell id="ws33cRkgydwae4PPvY6L-6" value="&lt;b&gt;NMPC&lt;/b&gt;&lt;div&gt;&lt;b&gt;Solver&lt;/b&gt;&lt;/div&gt;" style="rounded=0;whiteSpace=wrap;html=1;fillStyle=solid;fillColor=light-dark(#FFFFFF,#FF9999);fontColor=light-dark(#000000,#000000);strokeWidth=2;strokeColor=light-dark(#000000,#000000);" vertex="1" parent="ws33cRkgydwae4PPvY6L-1">
          <mxGeometry x="2" y="6" width="100" height="39.72" as="geometry" />
        </mxCell>
        <mxCell id="ws33cRkgydwae4PPvY6L-7" value="" style="endArrow=none;html=1;rounded=0;exitX=0;exitY=0.5;exitDx=0;exitDy=0;entryX=1;entryY=0.5;entryDx=0;entryDy=0;strokeColor=light-dark(#000000,#000000);strokeWidth=2;endFill=0;startArrow=classic;startFill=1;" edge="1" parent="ws33cRkgydwae4PPvY6L-1" source="ws33cRkgydwae4PPvY6L-2" target="ws33cRkgydwae4PPvY6L-6">
          <mxGeometry width="50" height="50" relative="1" as="geometry">
            <mxPoint x="-53" y="26.279999999999973" as="sourcePoint" />
            <mxPoint x="-3" y="-23.720000000000027" as="targetPoint" />
          </mxGeometry>
        </mxCell>
        <mxCell id="ws33cRkgydwae4PPvY6L-8" value="&lt;div style=&quot;line-height: 70%;&quot;&gt;&lt;div&gt;&lt;span style=&quot;font-size: 8px; line-height: 70%;&quot;&gt;&lt;b&gt;Control&lt;/b&gt;&lt;/span&gt;&lt;/div&gt;&lt;div&gt;&lt;span style=&quot;font-size: 8px; line-height: 70%;&quot;&gt;&lt;b&gt;Input&lt;/b&gt;&lt;/span&gt;&lt;/div&gt;&lt;/div&gt;" style="text;html=1;align=center;verticalAlign=middle;whiteSpace=wrap;rounded=0;fontFamily=Helvetica;fontSize=11;fontColor=light-dark(#000000,#000000);labelBackgroundColor=none;" vertex="1" parent="ws33cRkgydwae4PPvY6L-1">
          <mxGeometry x="101" y="24" width="66.69" height="24" as="geometry" />
        </mxCell>
        <mxCell id="ws33cRkgydwae4PPvY6L-9" value="&lt;div style=&quot;line-height: 70%;&quot;&gt;&lt;div&gt;&lt;span style=&quot;font-size: 8px; line-height: 70%;&quot;&gt;&lt;b&gt;Robot&lt;/b&gt;&lt;/span&gt;&lt;/div&gt;&lt;div&gt;&lt;span style=&quot;font-size: 8px; line-height: 70%;&quot;&gt;&lt;b&gt;Current&lt;/b&gt;&lt;/span&gt;&lt;/div&gt;&lt;div&gt;&lt;span style=&quot;font-size: 8px; line-height: 70%;&quot;&gt;&lt;b&gt;State&lt;/b&gt;&lt;/span&gt;&lt;/div&gt;&lt;/div&gt;" style="text;html=1;align=center;verticalAlign=middle;whiteSpace=wrap;rounded=0;fontFamily=Helvetica;fontSize=11;fontColor=light-dark(#000000,#000000);labelBackgroundColor=none;rotation=300;" vertex="1" parent="ws33cRkgydwae4PPvY6L-1">
          <mxGeometry x="115" y="97.99999999999977" width="66.69" height="29" as="geometry" />
        </mxCell>
        <mxCell id="ws33cRkgydwae4PPvY6L-10" value="&lt;div style=&quot;line-height: 70%;&quot;&gt;&lt;div&gt;&lt;span style=&quot;font-size: 8px; line-height: 70%;&quot;&gt;&lt;b&gt;Sensed&lt;/b&gt;&lt;/span&gt;&lt;/div&gt;&lt;div&gt;&lt;span style=&quot;font-size: 8px; line-height: 70%;&quot;&gt;&lt;b&gt;Obstacles&lt;/b&gt;&lt;/span&gt;&lt;/div&gt;&lt;/div&gt;" style="text;html=1;align=center;verticalAlign=middle;whiteSpace=wrap;rounded=0;fontFamily=Helvetica;fontSize=11;fontColor=light-dark(#000000,#000000);labelBackgroundColor=none;rotation=0;" vertex="1" parent="ws33cRkgydwae4PPvY6L-1">
          <mxGeometry x="199" y="59" width="42" height="24" as="geometry" />
        </mxCell>
        <mxCell id="ws33cRkgydwae4PPvY6L-11" value="&lt;div style=&quot;line-height: 70%;&quot;&gt;&lt;div&gt;&lt;span style=&quot;font-size: 8px; line-height: 70%;&quot;&gt;&lt;b&gt;Predicted&lt;/b&gt;&lt;/span&gt;&lt;/div&gt;&lt;div&gt;&lt;span style=&quot;font-size: 8px; line-height: 70%;&quot;&gt;&lt;b&gt;Obstacle&lt;/b&gt;&lt;/span&gt;&lt;/div&gt;&lt;div&gt;&lt;span style=&quot;font-size: 8px; line-height: 70%;&quot;&gt;&lt;b&gt;Trajectories&lt;/b&gt;&lt;/span&gt;&lt;/div&gt;&lt;/div&gt;" style="text;html=1;align=center;verticalAlign=middle;whiteSpace=wrap;rounded=0;fontFamily=Helvetica;fontSize=11;fontColor=light-dark(#000000,#000000);labelBackgroundColor=none;rotation=0;" vertex="1" parent="ws33cRkgydwae4PPvY6L-1">
          <mxGeometry x="118" y="175" width="42" height="31" as="geometry" />
        </mxCell>
        <mxCell id="ws33cRkgydwae4PPvY6L-12" value="&lt;span style=&quot;font-family: Helvetica; font-style: normal; font-variant-ligatures: normal; font-variant-caps: normal; letter-spacing: normal; orphans: 2; text-align: center; text-indent: 0px; text-transform: none; widows: 2; word-spacing: 0px; -webkit-text-stroke-width: 0px; white-space: nowrap; text-decoration-thickness: initial; text-decoration-style: initial; text-decoration-color: initial; float: none; display: inline !important;&quot;&gt;&lt;font style=&quot;font-size: 14px;&quot;&gt;&lt;b style=&quot;&quot;&gt;\(rb_{t}\)&lt;/b&gt;&lt;/font&gt;&lt;/span&gt;" style="text;whiteSpace=wrap;html=1;fontFamily=Helvetica;fontSize=11;fontColor=light-dark(#000000,#000000);labelBackgroundColor=none;fillColor=none;rotation=295;fontStyle=0;labelBorderColor=none;strokeWidth=0;shadow=0;" vertex="1" parent="ws33cRkgydwae4PPvY6L-1">
          <mxGeometry x="116.43" y="85.88000000000011" width="21.77" height="25.51" as="geometry" />
        </mxCell>
        <mxCell id="ws33cRkgydwae4PPvY6L-13" value="&lt;b style=&quot;text-wrap-mode: nowrap; font-size: 14px; text-align: center;&quot;&gt;\(So_{t}\)&lt;/b&gt;" style="text;whiteSpace=wrap;html=1;fontFamily=Helvetica;fontSize=11;fontColor=light-dark(#000000,#000000);labelBackgroundColor=none;" vertex="1" parent="ws33cRkgydwae4PPvY6L-1">
          <mxGeometry x="168" y="55" width="25" height="25.15" as="geometry" />
        </mxCell>
        <mxCell id="ws33cRkgydwae4PPvY6L-14" value="&lt;b style=&quot;forced-color-adjust: none; font-family: Helvetica; font-style: normal; font-variant-ligatures: normal; font-variant-caps: normal; letter-spacing: normal; orphans: 2; text-indent: 0px; text-transform: none; widows: 2; word-spacing: 0px; -webkit-text-stroke-width: 0px; white-space: nowrap; text-decoration-thickness: initial; text-decoration-style: initial; text-decoration-color: initial; font-size: 14px; text-align: center; box-shadow: none !important;&quot;&gt;&lt;font style=&quot;forced-color-adjust: none; box-shadow: none !important; color: light-dark(rgb(0, 0, 0), rgb(0, 0, 0));&quot;&gt;\(\tau_{t+t_n}\)&lt;/font&gt;&lt;/b&gt;" style="text;whiteSpace=wrap;html=1;fontFamily=Helvetica;fontSize=11;fontColor=light-dark(#000000,#000000);labelBackgroundColor=none;" vertex="1" parent="ws33cRkgydwae4PPvY6L-1">
          <mxGeometry x="122" y="149" width="37.19" height="26.24" as="geometry" />
        </mxCell>
        <mxCell id="ws33cRkgydwae4PPvY6L-15" value="" style="edgeStyle=orthogonalEdgeStyle;shape=connector;rounded=0;orthogonalLoop=1;jettySize=auto;html=1;strokeColor=light-dark(#000000,#000000);strokeWidth=2;align=center;verticalAlign=middle;fontFamily=Helvetica;fontSize=11;fontColor=light-dark(#000000,#000000);labelBackgroundColor=none;endArrow=classic;" edge="1" parent="ws33cRkgydwae4PPvY6L-1" source="ws33cRkgydwae4PPvY6L-16" target="ws33cRkgydwae4PPvY6L-6">
          <mxGeometry relative="1" as="geometry" />
        </mxCell>
        <mxCell id="ws33cRkgydwae4PPvY6L-16" value="&lt;b&gt;CBF Constraint Generation&lt;/b&gt;" style="rounded=0;whiteSpace=wrap;html=1;fillStyle=solid;fillColor=light-dark(#FA6800,#FFB366);fontColor=light-dark(#000000,#000000);strokeWidth=2;strokeColor=light-dark(#000000,#000000);" vertex="1" parent="ws33cRkgydwae4PPvY6L-1">
          <mxGeometry x="2" y="86" width="100" height="40" as="geometry" />
        </mxCell>
        <mxCell id="ws33cRkgydwae4PPvY6L-17" value="&lt;div style=&quot;line-height: 70%;&quot;&gt;&lt;div&gt;&lt;span style=&quot;font-size: 8px;&quot;&gt;&lt;b&gt;Uncertainty&lt;/b&gt;&lt;/span&gt;&lt;/div&gt;&lt;div&gt;&lt;span style=&quot;font-size: 8px;&quot;&gt;&lt;b&gt;Bounds&lt;/b&gt;&lt;/span&gt;&lt;/div&gt;&lt;/div&gt;" style="text;html=1;align=center;verticalAlign=middle;whiteSpace=wrap;rounded=0;fontFamily=Helvetica;fontSize=11;fontColor=light-dark(#000000,#000000);labelBackgroundColor=none;rotation=0;" vertex="1" parent="ws33cRkgydwae4PPvY6L-1">
          <mxGeometry x="51" y="136" width="53" height="29" as="geometry" />
        </mxCell>
        <mxCell id="ws33cRkgydwae4PPvY6L-18" value="&lt;div style=&quot;line-height: 70%;&quot;&gt;&lt;div&gt;&lt;span style=&quot;font-size: 8px;&quot;&gt;&lt;b&gt;Constraints&lt;/b&gt;&lt;/span&gt;&lt;/div&gt;&lt;/div&gt;" style="text;html=1;align=center;verticalAlign=middle;whiteSpace=wrap;rounded=0;fontFamily=Helvetica;fontSize=11;fontColor=light-dark(#000000,#000000);labelBackgroundColor=none;rotation=0;" vertex="1" parent="ws33cRkgydwae4PPvY6L-1">
          <mxGeometry x="50" y="56" width="56" height="22" as="geometry" />
        </mxCell>
        <mxCell id="ws33cRkgydwae4PPvY6L-19" value="&lt;div style=&quot;line-height: 70%;&quot;&gt;&lt;div&gt;&lt;b style=&quot;font-size: 8px; background-color: transparent;&quot;&gt;Obstacles&lt;/b&gt;&lt;/div&gt;&lt;div&gt;&lt;b style=&quot;font-size: 8px; background-color: transparent;&quot;&gt;History&lt;/b&gt;&lt;/div&gt;&lt;/div&gt;" style="text;html=1;align=center;verticalAlign=middle;whiteSpace=wrap;rounded=0;fontFamily=Helvetica;fontSize=11;fontColor=light-dark(#000000,#000000);labelBackgroundColor=none;rotation=0;strokeColor=light-dark(#000000,#000000);strokeWidth=2;fillColor=light-dark(#FFFFFF,#B266FF);" vertex="1" parent="ws33cRkgydwae4PPvY6L-1">
          <mxGeometry x="222" y="95" width="50" height="31" as="geometry" />
        </mxCell>
        <mxCell id="ws33cRkgydwae4PPvY6L-20" value="" style="endArrow=classic;html=1;rounded=0;strokeColor=light-dark(#000000,#000000);strokeWidth=2;align=center;verticalAlign=middle;fontFamily=Helvetica;fontSize=11;fontColor=light-dark(#000000,#000000);labelBackgroundColor=none;edgeStyle=orthogonalEdgeStyle;entryX=0.25;entryY=0;entryDx=0;entryDy=0;exitX=0.25;exitY=1;exitDx=0;exitDy=0;" edge="1" parent="ws33cRkgydwae4PPvY6L-1" source="ws33cRkgydwae4PPvY6L-2" target="ws33cRkgydwae4PPvY6L-3">
          <mxGeometry width="50" height="50" relative="1" as="geometry">
            <mxPoint x="156" y="123" as="sourcePoint" />
            <mxPoint x="206" y="73" as="targetPoint" />
          </mxGeometry>
        </mxCell>
        <mxCell id="ws33cRkgydwae4PPvY6L-21" value="" style="endArrow=none;html=1;rounded=0;exitX=1;exitY=0.25;exitDx=0;exitDy=0;entryX=-0.001;entryY=0.393;entryDx=0;entryDy=0;strokeColor=light-dark(#000000,#000000);strokeWidth=2;endFill=0;startArrow=classic;startFill=1;entryPerimeter=0;" edge="1" parent="ws33cRkgydwae4PPvY6L-1" source="ws33cRkgydwae4PPvY6L-5" target="ws33cRkgydwae4PPvY6L-3">
          <mxGeometry width="50" height="50" relative="1" as="geometry">
            <mxPoint x="182" y="146" as="sourcePoint" />
            <mxPoint x="112" y="146" as="targetPoint" />
          </mxGeometry>
        </mxCell>
        <mxCell id="ws33cRkgydwae4PPvY6L-22" value="" style="endArrow=none;html=1;rounded=0;exitX=1;exitY=0;exitDx=0;exitDy=0;entryX=0;entryY=1;entryDx=0;entryDy=0;strokeColor=light-dark(#000000,#000000);strokeWidth=2;endFill=0;startArrow=classic;startFill=1;" edge="1" parent="ws33cRkgydwae4PPvY6L-1" source="ws33cRkgydwae4PPvY6L-5" target="ws33cRkgydwae4PPvY6L-2">
          <mxGeometry width="50" height="50" relative="1" as="geometry">
            <mxPoint x="312" y="146" as="sourcePoint" />
            <mxPoint x="242" y="146" as="targetPoint" />
          </mxGeometry>
        </mxCell>
        <mxCell id="ws33cRkgydwae4PPvY6L-23" value="" style="endArrow=classic;html=1;rounded=0;strokeColor=light-dark(#000000,#000000);strokeWidth=2;align=center;verticalAlign=middle;fontFamily=Helvetica;fontSize=11;fontColor=light-dark(#000000,#000000);labelBackgroundColor=none;edgeStyle=orthogonalEdgeStyle;entryX=0.393;entryY=-0.011;entryDx=0;entryDy=0;exitX=0;exitY=0.5;exitDx=0;exitDy=0;entryPerimeter=0;" edge="1" parent="ws33cRkgydwae4PPvY6L-1" source="ws33cRkgydwae4PPvY6L-19" target="ws33cRkgydwae4PPvY6L-3">
          <mxGeometry width="50" height="50" relative="1" as="geometry">
            <mxPoint x="212" y="36" as="sourcePoint" />
            <mxPoint x="212" y="146" as="targetPoint" />
          </mxGeometry>
        </mxCell>
        <mxCell id="ws33cRkgydwae4PPvY6L-24" value="&lt;b style=&quot;text-wrap-mode: nowrap; font-size: 14px; text-align: center;&quot;&gt;\(Ho_{t}\)&lt;/b&gt;" style="text;whiteSpace=wrap;html=1;fontFamily=Helvetica;fontSize=11;fontColor=light-dark(#000000,#000000);labelBackgroundColor=none;" vertex="1" parent="ws33cRkgydwae4PPvY6L-1">
          <mxGeometry x="219" y="126" width="26" height="24" as="geometry" />
        </mxCell>
        <mxCell id="ws33cRkgydwae4PPvY6L-25" value="&lt;b style=&quot;text-wrap-mode: nowrap; font-size: 14px; text-align: center;&quot;&gt;\([\sigma_{l}, \sigma_{u}]\)&lt;/b&gt;" style="text;whiteSpace=wrap;html=1;fontFamily=Helvetica;fontSize=11;fontColor=light-dark(#000000,#000000);labelBackgroundColor=none;" vertex="1" parent="ws33cRkgydwae4PPvY6L-1">
          <mxGeometry y="136" width="23" height="24.15" as="geometry" />
        </mxCell>
        <mxCell id="ws33cRkgydwae4PPvY6L-26" value="\(\mathcal{C}\)" style="text;whiteSpace=wrap;fontFamily=Helvetica;fontSize=11;fontColor=light-dark(#000000,#000000);labelBackgroundColor=none;fillColor=none;" vertex="1" parent="ws33cRkgydwae4PPvY6L-1">
          <mxGeometry x="37" y="55" width="14" height="23" as="geometry" />
        </mxCell>
        <mxCell id="ws33cRkgydwae4PPvY6L-27" value="\(u_{t}\)" style="text;whiteSpace=wrap;fontFamily=Helvetica;fontSize=14;fontColor=light-dark(#000000,#000000);labelBackgroundColor=none;" vertex="1" parent="ws33cRkgydwae4PPvY6L-1">
          <mxGeometry x="126" width="22.31" height="28" as="geometry" />
        </mxCell>
      </root>
    </mxGraphModel>
  </diagram>
</mxfile>
